<?xml version="1.0" encoding="utf-8" ?>
<svg xmlns="http://www.w3.org/2000/svg" xmlns:xlink="http://www.w3.org/1999/xlink" width="1024" height="1024">
	<path fill="#FEFEFE" d="M0 0L1024 0L1024 1024L0 1024L0 0Z"/>
	<path fill="#2D4559" d="M31.8058 792.163C37.874 791.649 69.5087 790.862 73.7299 792.352L73.8821 793.582C67.7567 793.61 36.1149 794.637 32.3022 793.428L31.8058 792.163Z"/>
	<path fill="#2D4559" d="M952.665 792.127C957.308 791.578 993.387 791.112 995.877 792.278L995.879 793.764C990.604 794.199 956.556 794.422 953.112 793.697L952.665 792.127Z"/>
	<path fill="#2D4559" d="M154.882 747.802C144.461 712.372 135.152 676.524 125.519 640.871Q121.533 626.036 117.268 611.278C115.092 603.677 112.652 595.983 111.261 588.198L110.642 588.068L111.451 587.568L111.103 587.088L111.03 586.137C112.093 586.814 112.361 588.015 112.727 589.16C121.998 618.166 129.145 648.077 137.211 677.45L172.991 806.016L208.749 806.082L568.903 806.357L687.196 806.251C708.178 806.235 729.299 806.764 750.259 806.134C775.721 806.154 801.325 806.717 826.773 806.041L776.569 702.328C773.756 696.442 763.313 677.087 762.588 672.172L762.723 672.496C762.863 672.598 763.03 672.671 763.143 672.803C765.75 675.814 771.059 688.967 773.189 693.243C786.639 720.237 799.282 747.669 812.593 774.741C817.534 784.79 822.38 796.673 828.141 806.117C841.224 806.326 854.312 805.984 867.391 806.252L956.824 806.476C968.324 806.454 984.109 807.32 995.253 806.118C998.914 806.136 1005.23 804.735 1008.11 807.509C1009.08 808.45 1009.09 809.069 1009.14 810.31C1008.52 811.187 1008.27 811.621 1007.21 812.009C1003.17 813.484 917.212 812.348 903.71 812.364L450.91 812.386L172.881 812.28L64.9724 812.405C49.9246 812.4 34.6365 813.032 19.6228 812.592C17.9393 812.543 15.6579 812.458 14.1873 811.579C13.069 810.911 13.0212 810.466 12.8904 809.311C13.2543 808.473 13.5871 807.502 14.3339 806.914C15.0744 806.332 16.0928 806.127 17.0127 806.08C26.7847 805.584 36.9238 806.28 46.7496 806.304Q78.2227 806.349 109.694 806.008L171.318 805.997C165.76 787.296 161.24 768.189 155.353 749.608C150.974 750.045 134.841 752.226 131.729 750.247L132.027 750.133L131.978 750.594C132.632 750.614 132.531 750.097 133.031 749.877C134.1 749.407 136.157 749.29 137.335 749.131C143.093 748.352 149.079 748.194 154.882 747.802Z"/>
	<path fill="#3EA2E4" d="M974.736 624.018C978.51 623.777 982.316 623.425 986.097 623.425C995.495 674.191 991.821 720.478 961.83 764.217Q959.617 767.48 957.212 770.605Q954.807 773.73 952.219 776.705Q949.631 779.68 946.87 782.495Q944.109 785.31 941.184 787.954Q938.259 790.598 935.18 793.063Q932.102 795.527 928.882 797.802Q925.662 800.078 922.311 802.156Q918.96 804.235 915.491 806.109Q943.121 806.275 970.75 806.066C978.893 806.043 987.119 805.776 995.253 806.118C984.109 807.32 968.324 806.454 956.824 806.476L867.391 806.252C868.193 798.06 869.447 789.962 869.54 781.713C869.883 751.223 861.599 717.999 843.83 693.047C850.988 685.853 856.069 676.936 863.676 670.009C869.41 664.787 876.137 660.493 882.671 656.339C911.009 638.32 941.453 628.023 974.736 624.018Z"/>
	<path fill="#FE617B" d="M737.276 627.646C780.32 636.771 816.495 658.513 843.83 693.047C861.599 717.999 869.883 751.223 869.54 781.713C869.447 789.962 868.193 798.06 867.391 806.252C854.312 805.984 841.224 806.326 828.141 806.117C822.38 796.673 817.534 784.79 812.593 774.741C799.282 747.669 786.639 720.237 773.189 693.243C771.059 688.967 765.75 675.814 763.143 672.803C763.03 672.671 762.863 672.598 762.723 672.496L762.588 672.172C763.313 677.087 773.756 696.442 776.569 702.328L826.773 806.041C801.325 806.717 775.721 806.154 750.259 806.134C750.006 805.742 749.759 805.345 749.535 804.935C728.158 765.669 724.861 715.86 729.102 672.211C730.565 657.152 732.782 642.126 737.276 627.646Z"/>
	<path fill="#56C37F" d="M97.5296 537.027C109.36 541.801 121.641 548.51 132.191 555.645C135.393 557.811 147.597 567.604 150 568.068C150.536 569.303 150.651 569.41 151.951 569.95C152.109 570.015 152.277 570.05 152.44 570.099C152.545 570.215 152.649 570.332 152.756 570.446C156.514 574.44 161.457 577.79 165.73 581.276Q174.29 588.276 181.984 596.218C212.345 627.517 234.018 672.231 233.086 716.324C232.411 748.269 221.476 777.253 208.749 806.082L172.991 806.016L137.211 677.45C129.145 648.077 121.998 618.166 112.727 589.16C112.361 588.015 112.093 586.814 111.03 586.137L111.103 587.088L111.451 587.568L110.642 588.068L111.261 588.198C112.652 595.983 115.092 603.677 117.268 611.278Q121.533 626.036 125.519 640.871C135.152 676.524 144.461 712.372 154.882 747.802C149.079 748.194 143.093 748.352 137.335 749.131C136.157 749.29 134.1 749.407 133.031 749.877C132.531 750.097 132.632 750.614 131.978 750.594L132.027 750.133L131.729 750.247C134.841 752.226 150.974 750.045 155.353 749.608C161.24 768.189 165.76 787.296 171.318 805.997L109.694 806.008C95.7183 794.744 83.9055 778.573 75.4945 762.795C54.7394 723.86 50.2828 672.823 59.8892 630.069C62.0357 620.516 64.5799 610.904 67.6579 601.609C69.5143 596.002 71.9551 590.519 73.614 584.86L73.8614 584C77.2882 577.713 79.7266 570.664 82.7955 564.171C87.2004 554.85 92.328 545.919 97.5296 537.027Z"/>
	<path fill="#FEFEFE" d="M97.6637 605.098C100.564 605.001 103.705 605.569 106.323 606.834Q106.991 607.151 107.623 607.535Q108.255 607.919 108.844 608.367Q109.433 608.814 109.973 609.32Q110.513 609.825 110.997 610.384Q111.482 610.943 111.907 611.548Q112.331 612.154 112.691 612.8Q113.051 613.446 113.342 614.126Q113.633 614.806 113.853 615.512Q114.092 616.257 114.253 617.023Q114.413 617.789 114.493 618.568Q114.573 619.346 114.572 620.129Q114.571 620.911 114.488 621.69Q114.406 622.468 114.243 623.233Q114.08 623.999 113.839 624.743Q113.598 625.488 113.28 626.203Q112.963 626.918 112.573 627.597C109.958 632.044 105.947 633.868 101.155 635.009C97.1908 635.142 93.6333 634.602 90.2835 632.335Q89.6732 631.922 89.1077 631.45Q88.5421 630.978 88.0272 630.452Q87.5122 629.925 87.053 629.349Q86.5939 628.773 86.1952 628.153Q85.7966 627.534 85.4625 626.877Q85.1284 626.221 84.8623 625.534Q84.5963 624.847 84.4009 624.137Q84.2056 623.426 84.0829 622.7Q83.9495 621.964 83.8889 621.219Q83.8284 620.474 83.8415 619.726Q83.8545 618.978 83.9409 618.236Q84.0273 617.493 84.1863 616.762Q84.3453 616.031 84.5753 615.32Q84.8053 614.608 85.1042 613.923Q85.403 613.237 85.7677 612.585Q86.1324 611.932 86.5595 611.318C89.3423 607.378 93.1299 605.943 97.6637 605.098Z"/>
	<path fill="#56C37F" d="M96.764 607.139C99.5447 606.991 102.263 607.083 104.833 608.282C108.313 609.906 111.024 612.827 112.137 616.53C113.138 619.861 112.8 623.569 111.019 626.578C108.918 630.13 105.595 631.826 101.757 632.924C98.3731 633.129 95.4618 633.067 92.4382 631.338C89.3535 629.574 87.0692 626.735 86.1545 623.288Q85.9877 622.654 85.8848 622.007Q85.7819 621.36 85.744 620.706Q85.7061 620.052 85.7336 619.397Q85.761 618.743 85.8536 618.094Q85.9462 617.446 86.1029 616.809Q86.2596 616.173 86.4789 615.556Q86.6983 614.939 86.978 614.346Q87.2578 613.754 87.5952 613.192C89.7144 609.742 92.9067 607.96 96.764 607.139Z"/>
	<path fill="#FEFEFE" d="M170.733 631.103C173.995 630.813 176.85 630.758 179.961 632.026Q180.71 632.33 181.424 632.708Q182.139 633.085 182.812 633.533Q183.484 633.981 184.108 634.495Q184.732 635.009 185.301 635.583Q185.87 636.157 186.378 636.786Q186.885 637.415 187.327 638.091Q187.769 638.768 188.14 639.486Q188.511 640.204 188.808 640.956Q189.097 641.69 189.308 642.45Q189.519 643.21 189.649 643.988Q189.78 644.766 189.828 645.553Q189.877 646.34 189.842 647.128Q189.808 647.916 189.692 648.696Q189.576 649.476 189.379 650.24Q189.182 651.004 188.906 651.743Q188.63 652.482 188.279 653.188C186.068 657.681 182.354 659.992 177.73 661.468C174.462 661.692 171.545 661.685 168.465 660.412C164.475 658.763 161.167 655.575 159.635 651.506Q159.371 650.812 159.177 650.096Q158.984 649.379 158.863 648.647Q158.742 647.915 158.695 647.174Q158.647 646.433 158.675 645.692Q158.702 644.95 158.803 644.215Q158.904 643.479 159.078 642.758Q159.253 642.036 159.498 641.336Q159.744 640.635 160.058 639.963C162.21 635.238 166.013 632.748 170.733 631.103Z"/>
	<path fill="#56C37F" d="M171.117 633.081C173.851 632.765 176.39 632.756 179.006 633.736Q179.672 633.978 180.309 634.289Q180.946 634.599 181.547 634.975Q182.148 635.35 182.706 635.786Q183.265 636.222 183.775 636.714Q184.284 637.206 184.74 637.748Q185.196 638.291 185.593 638.878Q185.989 639.465 186.323 640.09Q186.656 640.715 186.922 641.372Q187.168 641.971 187.354 642.59Q187.54 643.21 187.664 643.845Q187.787 644.48 187.848 645.125Q187.908 645.769 187.904 646.416Q187.901 647.063 187.834 647.707Q187.766 648.35 187.635 648.984Q187.505 649.618 187.312 650.236Q187.12 650.853 186.867 651.449C185.031 655.769 181.687 657.926 177.562 659.698C174.654 660.034 171.971 659.89 169.239 658.735C165.663 657.224 162.808 654.352 161.496 650.678Q161.279 650.063 161.124 649.429Q160.969 648.795 160.877 648.149Q160.786 647.503 160.758 646.851Q160.731 646.2 160.768 645.548Q160.805 644.897 160.906 644.252Q161.007 643.608 161.171 642.976Q161.336 642.345 161.562 641.733Q161.788 641.121 162.073 640.534C163.981 636.599 167.129 634.541 171.117 633.081Z"/>
	<path fill="#FEFEFE" d="M93.926 665.661C96.9461 665.701 99.6352 665.943 102.346 667.39Q103.041 667.76 103.696 668.198Q104.35 668.636 104.957 669.138Q105.564 669.641 106.117 670.202Q106.67 670.763 107.163 671.377Q107.656 671.991 108.085 672.652Q108.513 673.313 108.872 674.014Q109.232 674.715 109.518 675.448Q109.805 676.182 110.016 676.941Q110.239 677.716 110.383 678.509Q110.528 679.302 110.593 680.105Q110.658 680.909 110.643 681.715Q110.628 682.521 110.532 683.321Q110.437 684.122 110.263 684.909Q110.088 685.696 109.837 686.461Q109.585 687.227 109.258 687.964Q108.931 688.701 108.533 689.402C105.798 694.132 101.75 695.869 96.7225 697.127C92.8735 697.205 89.608 696.75 86.2928 694.632Q85.6181 694.195 84.9907 693.693Q84.3633 693.19 83.7895 692.627Q83.2158 692.065 82.7015 691.447Q82.1873 690.829 81.7376 690.163Q81.288 689.497 80.9077 688.788Q80.5273 688.08 80.22 687.338Q79.9127 686.595 79.6815 685.825Q79.4504 685.055 79.2978 684.266Q79.1467 683.481 79.0767 682.684Q79.0067 681.888 79.0186 681.088Q79.0306 680.289 79.1243 679.494Q79.2181 678.7 79.3926 677.92Q79.5671 677.14 79.8207 676.381Q80.0742 675.623 80.404 674.894Q80.7338 674.166 81.1365 673.475Q81.5391 672.784 82.0104 672.138C84.9676 668.065 89.085 666.358 93.926 665.661Z"/>
	<path fill="#56C37F" d="M92.8157 667.6C95.5561 667.48 98.0318 667.516 100.578 668.661Q101.229 668.955 101.847 669.315Q102.464 669.675 103.041 670.097Q103.617 670.52 104.147 671Q104.676 671.48 105.153 672.012Q105.629 672.545 106.048 673.124Q106.467 673.703 106.823 674.323Q107.179 674.943 107.469 675.596Q107.759 676.249 107.979 676.929C109.173 680.576 108.947 684.592 107.077 687.975C104.88 691.948 101.414 693.92 97.1442 695.017C94.3217 695.054 91.7732 695.079 89.1396 693.865Q88.4791 693.564 87.8534 693.197Q87.2276 692.829 86.6434 692.398Q86.0591 691.968 85.5226 691.479Q84.9861 690.99 84.5033 690.448Q84.0204 689.906 83.5962 689.318Q83.1721 688.729 82.8113 688.099Q82.4505 687.469 82.157 686.805Q81.8634 686.142 81.6403 685.451Q81.4293 684.775 81.2895 684.08Q81.1496 683.385 81.0823 682.68Q81.015 681.974 81.0211 681.266Q81.0271 680.557 81.1064 679.853Q81.1857 679.149 81.3374 678.457Q81.4891 677.765 81.7116 677.092Q81.9341 676.42 82.2249 675.774Q82.5158 675.127 82.8719 674.515C85.0792 670.676 88.6525 668.676 92.8157 667.6Z"/>
	<path fill="#FEFEFE" d="M119.075 760.595C122.268 760.37 125.598 761.072 128.377 762.675C132.186 764.872 134.805 768.677 135.82 772.926Q135.923 773.343 136.004 773.765Q136.085 774.187 136.144 774.612Q136.203 775.037 136.24 775.465Q136.277 775.893 136.291 776.322Q136.306 776.752 136.298 777.181Q136.29 777.61 136.26 778.039Q136.23 778.467 136.177 778.894Q136.125 779.32 136.05 779.743Q135.975 780.166 135.879 780.584Q135.782 781.003 135.664 781.416Q135.546 781.829 135.406 782.235Q135.266 782.641 135.106 783.039Q134.945 783.438 134.764 783.827Q134.583 784.216 134.382 784.596Q134.181 784.975 133.96 785.344Q133.74 785.712 133.5 786.069C130.524 790.466 126.617 792.089 121.617 792.953C118.324 793.022 114.723 792.179 111.892 790.463Q111.192 790.032 110.54 789.533Q109.887 789.034 109.288 788.47Q108.69 787.907 108.151 787.287Q107.612 786.666 107.139 785.994Q106.667 785.322 106.264 784.605Q105.862 783.889 105.534 783.135Q105.206 782.381 104.957 781.598Q104.707 780.815 104.538 780.011Q104.366 779.223 104.275 778.422Q104.184 777.621 104.175 776.815Q104.166 776.009 104.239 775.206Q104.312 774.403 104.467 773.612Q104.621 772.821 104.855 772.049Q105.089 771.278 105.4 770.534Q105.711 769.791 106.096 769.082Q106.482 768.374 106.937 767.709C109.929 763.295 114.069 761.612 119.075 760.595Z"/>
	<path fill="#56C37F" d="M118.435 762.538C121.577 762.197 124.543 762.634 127.321 764.227C130.631 766.125 132.991 769.419 133.92 773.1Q134.107 773.812 134.222 774.539Q134.336 775.267 134.377 776.002Q134.418 776.737 134.385 777.472Q134.352 778.208 134.246 778.936Q134.139 779.665 133.959 780.379Q133.78 781.093 133.53 781.786Q133.28 782.478 132.961 783.142Q132.643 783.806 132.259 784.434C129.93 788.172 126.548 790.058 122.326 790.925C119.533 791.053 116.851 790.811 114.289 789.614Q113.64 789.315 113.024 788.953Q112.408 788.59 111.832 788.168Q111.255 787.746 110.724 787.268Q110.193 786.791 109.712 786.262Q109.231 785.734 108.806 785.16Q108.38 784.586 108.014 783.972Q107.648 783.359 107.345 782.711Q107.042 782.064 106.806 781.39Q106.574 780.726 106.412 780.041Q106.25 779.356 106.159 778.658Q106.068 777.96 106.049 777.257Q106.03 776.553 106.083 775.852Q106.136 775.15 106.262 774.457Q106.387 773.765 106.582 773.089Q106.778 772.413 107.042 771.76Q107.306 771.108 107.635 770.486C109.943 766.038 113.783 763.882 118.435 762.538Z"/>
	<path fill="#FEFEFE" d="M191.938 726.637C195.886 726.583 199.483 727.144 202.919 729.212Q203.295 729.439 203.658 729.686Q204.021 729.932 204.372 730.197Q204.722 730.462 205.058 730.744Q205.394 731.027 205.715 731.326Q206.036 731.626 206.341 731.942Q206.646 732.257 206.934 732.588Q207.223 732.919 207.493 733.265Q207.764 733.61 208.017 733.97Q208.269 734.329 208.503 734.7Q208.737 735.072 208.951 735.455Q209.165 735.838 209.359 736.232Q209.553 736.626 209.727 737.029Q209.9 737.433 210.053 737.844Q210.205 738.256 210.336 738.675Q210.467 739.094 210.576 739.519Q210.685 739.945 210.772 740.375Q210.859 740.805 210.924 741.239Q210.988 741.673 211.03 742.11Q211.073 742.546 211.092 742.985Q211.112 743.423 211.108 743.862Q211.105 744.301 211.079 744.739Q211.053 745.177 211.005 745.613Q210.956 746.049 210.885 746.482Q210.814 746.915 210.721 747.343Q210.627 747.772 210.512 748.195Q210.396 748.619 210.259 749.035Q210.122 749.452 209.964 749.861Q209.805 750.27 209.626 750.671Q209.446 751.071 209.246 751.462Q209.046 751.852 208.826 752.232Q208.606 752.612 208.367 752.979Q208.128 753.347 207.87 753.702C204.741 757.976 200.668 759.675 195.621 760.412C192.091 760.552 188.719 760 185.588 758.294Q185.199 758.08 184.822 757.846Q184.445 757.613 184.081 757.36Q183.716 757.107 183.365 756.836Q183.014 756.565 182.678 756.276Q182.341 755.987 182.019 755.682Q181.698 755.376 181.393 755.054Q181.087 754.732 180.799 754.396Q180.51 754.059 180.239 753.707Q179.969 753.356 179.716 752.991Q179.464 752.626 179.23 752.249Q178.997 751.872 178.783 751.483Q178.57 751.095 178.376 750.695Q178.183 750.296 178.01 749.888Q177.837 749.479 177.686 749.062Q177.534 748.645 177.404 748.221Q177.274 747.797 177.166 747.367Q176.959 746.57 176.834 745.757Q176.709 744.943 176.666 744.121Q176.624 743.299 176.665 742.477Q176.705 741.655 176.829 740.842Q176.953 740.028 177.158 739.231Q177.363 738.434 177.648 737.661Q177.933 736.889 178.294 736.15Q178.656 735.41 179.09 734.711C182.125 729.796 186.543 727.825 191.938 726.637Z"/>
	<path fill="#56C37F" d="M191.432 728.537C194.914 728.33 198.132 728.762 201.225 730.473Q201.877 730.828 202.49 731.246Q203.104 731.664 203.673 732.141Q204.242 732.617 204.762 733.147Q205.281 733.678 205.746 734.257Q206.21 734.836 206.615 735.458Q207.021 736.08 207.362 736.739Q207.704 737.398 207.979 738.088Q208.254 738.778 208.459 739.491C209.548 743.337 209.18 747.653 207.193 751.15C204.746 755.459 200.937 757.302 196.312 758.466C193.319 758.594 190.638 758.404 187.868 757.142Q187.126 756.81 186.421 756.402Q185.717 755.995 185.059 755.517Q184.401 755.039 183.795 754.496Q183.19 753.953 182.643 753.35Q182.097 752.747 181.616 752.091Q181.135 751.435 180.724 750.733Q180.313 750.031 179.977 749.29Q179.641 748.55 179.383 747.778Q179.158 747.099 179.004 746.4Q178.849 745.702 178.766 744.992Q178.682 744.281 178.671 743.566Q178.661 742.85 178.722 742.138Q178.783 741.425 178.917 740.722Q179.05 740.019 179.254 739.334Q179.457 738.648 179.729 737.986Q180.001 737.325 180.339 736.694C182.756 732.168 186.664 729.928 191.432 728.537Z"/>
	<path fill="#E8F5FC" d="M124.013 312.169C126.886 304.176 130.013 293.99 137.954 289.546C147.092 284.431 155.193 292.188 163.672 294.536C180.237 299.123 197.897 273.62 208.098 263.126C214.075 256.978 220.506 251.226 228.01 246.993C234.789 243.169 243.243 240.599 250.959 242.97C265.311 247.379 265.549 271.025 271.862 281.644C272.637 282.948 273.294 283.495 274.754 283.84C280.232 281.398 285.179 274.991 289.562 270.913C293.005 267.709 296.8 264.562 300.774 262.038C314.284 253.458 332.239 250.687 347.759 254.375C374.098 260.634 367.831 272.953 378.83 290.92C382.863 288.908 386.125 285.596 389.333 282.501C394.075 276.455 401.641 264.483 407.912 260.502C408.518 260.117 409.111 259.752 409.704 259.349C409.891 258.107 410.012 256.86 410.139 255.61C410.7 260.529 411.344 287.725 410.08 291.195C409.09 291.907 408.14 292.479 407.047 293.021C406.333 298.006 404.002 306.88 407.182 311.21C408.139 312.512 410.021 314.086 410.684 315.5C411.859 318.013 411.258 360.808 411.294 367.165L411.038 397.77Q410.932 413.043 411.021 428.315L411.086 464.96C379.005 479.389 345.683 507.972 323.061 534.658C313.824 545.555 305.715 557.409 296.439 568.249C292.059 567.53 286.801 568.084 282.334 568.116L256.204 568.216L253.814 568.209C239.314 568.313 224.803 568.142 210.302 568.075C194.441 568.246 178.576 567.941 162.712 568.14L160.312 567.98C156.882 568.118 153.433 568.059 150 568.068C147.597 567.604 135.393 557.811 132.191 555.645C121.641 548.51 109.36 541.801 97.5296 537.027C92.328 545.919 87.2004 554.85 82.7955 564.171C79.7266 570.664 77.2882 577.713 73.8614 584C73.6897 583.418 73.8162 583.72 73.3495 583.021L72.9563 582.444L73.738 583.336L73.1782 584.189L73.7846 584.383L72.6917 584.364L72.7361 584.348C71.0024 564.649 77.2503 538.82 84.7539 520.67Q87.2382 514.805 90.1827 509.157Q93.1273 503.509 96.5132 498.114Q99.8992 492.719 103.705 487.611Q107.511 482.503 111.712 477.716C152.719 431.24 207.515 426.14 260.417 400.343C294.899 383.529 325.364 362.129 352.619 335.176C359.872 328.004 367.237 320.668 373.444 312.555C290.333 311.507 207.138 312.513 124.013 312.169Z"/>
	<path fill="#FE617B" d="M160.312 567.98C186.518 549.572 204.481 523.612 222.6 497.782C233.65 482.03 244.69 466.06 257.669 451.816C292.667 413.406 337.441 388.961 386.802 374.04C394.903 371.591 403.036 369.021 411.294 367.165L411.038 397.77Q410.932 413.043 411.021 428.315L411.086 464.96C379.005 479.389 345.683 507.972 323.061 534.658C313.824 545.555 305.715 557.409 296.439 568.249C292.059 567.53 286.801 568.084 282.334 568.116L256.204 568.216L253.814 568.209C239.314 568.313 224.803 568.142 210.302 568.075C194.441 568.246 178.576 567.941 162.712 568.14L160.312 567.98Z"/>
	<path fill="#E8F5FC" d="M411.021 428.315L411.086 464.96C379.005 479.389 345.683 507.972 323.061 534.658C313.824 545.555 305.715 557.409 296.439 568.249C292.059 567.53 286.801 568.084 282.334 568.116L256.204 568.216L253.814 568.209C256.229 564.293 259.646 560.701 262.549 557.128Q270.626 547.255 278.46 537.188C286.465 526.859 294.319 516.377 302.83 506.456C333.733 470.434 367.399 446.82 411.021 428.315Z"/>
	<path fill="#3EA2E4" d="M437.461 224.023C440.89 223.245 454.757 214.115 459.184 211.786Q473.174 204.6 487.654 198.461C548.236 173.091 614.377 169.247 675.287 195.593C683.44 199.119 691.624 203.481 699.2 208.128C704.951 211.656 711.393 216.599 717.671 219.026C717.91 219.118 718.151 219.204 718.391 219.293C692.495 229.438 666.772 239.188 639.926 246.642C621.907 251.645 602.721 254.384 585.198 260.917C580.853 262.537 576.716 264.076 574.71 268.627C572.017 274.734 576.822 283.347 576.971 289.77C577.313 304.544 565.495 321.077 552.192 326.922L551.425 328.153C552.981 332.342 555.822 337.776 556.111 342.181C555.956 342.44 555.707 343.02 555.446 343.157C555.824 345.5 556.185 347.845 556.647 350.174C557.095 353.526 557.537 362.411 558.904 364.884C560.284 382.345 564.106 396.146 551.753 410.547C546.864 416.247 541.365 420.707 535.939 425.79C534.526 426.26 533.49 427.209 532.344 428.124C531.648 430.582 530.954 432.652 529.612 434.864C526.553 435.703 524.26 436.895 521.007 436.653L520.367 436.756C520.639 436.855 520.908 436.96 521.182 437.052C523.126 437.71 524.933 436.25 526.459 437.7L526.468 438.199L525.958 438.718L526.455 438.649L524.2 485.03C523.907 492.554 522.913 500.904 524.11 508.339C524.707 512.045 526.245 515.756 528.755 518.577C533.297 523.682 540.895 526.355 546.779 529.626C552.548 532.834 557.544 536.827 561.763 541.9C563.543 550.461 564.462 559.332 565.718 567.991L559.062 568.068C553.558 568.875 534.606 567.511 531.502 569.431C518.931 569.941 506.244 569.565 493.658 569.626Q455.396 569.945 417.131 569.881L411.388 569.911L410.919 567.965L351.852 568.058C348.401 567.851 344.848 567.993 341.385 567.966C326.436 568.575 311.382 567.366 296.439 568.249C305.715 557.409 313.824 545.555 323.061 534.658C345.683 507.972 379.005 479.389 411.086 464.96L411.021 428.315Q410.932 413.043 411.038 397.77L411.294 367.165C411.258 360.808 411.859 318.013 410.684 315.5C410.021 314.086 408.139 312.512 407.182 311.21C404.002 306.88 406.333 298.006 407.047 293.021C408.14 292.479 409.09 291.907 410.08 291.195C411.344 287.725 410.7 260.529 410.139 255.61C405.057 255.211 399.629 253.615 395.406 250.728Q394.988 250.447 394.584 250.146Q394.18 249.844 393.791 249.523Q393.403 249.202 393.03 248.863Q392.658 248.523 392.303 248.165Q391.949 247.807 391.612 247.432Q391.275 247.057 390.958 246.666Q390.64 246.275 390.342 245.868Q390.044 245.462 389.767 245.041Q389.489 244.62 389.233 244.186Q388.977 243.752 388.743 243.306Q388.508 242.86 388.296 242.403Q388.084 241.946 387.895 241.478Q387.706 241.011 387.54 240.535Q387.375 240.059 387.233 239.576Q387.091 239.092 386.973 238.602Q386.855 238.112 386.762 237.617C386.082 233.88 386.375 229.347 388.738 226.207C389.776 224.828 391.374 223.783 393.15 223.78C395.583 223.777 397.118 225.797 398.688 227.381C398.031 228.877 397.347 230.459 396.922 232.037C396.279 234.415 396.835 237.378 398.199 239.414C400.949 243.52 405.563 244.628 410.093 245.499C410.557 236.677 410.3 227.768 410.282 218.934C408.057 219.238 405.174 219.783 403.341 218.053C402.491 217.251 402.193 216.249 402.452 215.113C402.832 213.45 404.395 211.924 405.786 211.051C409.792 208.54 416.793 208.397 421.298 209.657C423.67 210.321 427.328 211.956 428.221 214.542C428.68 215.872 428.422 216.242 427.885 217.441C425.798 219.192 424.228 219.354 421.533 219.285L420.929 219.265C419.023 223.918 420.154 239.238 420.169 245.033Q421.414 244.576 422.641 244.073C426.135 242.648 429.653 240.266 431.017 236.587C432.226 233.327 431.713 230.21 430.239 227.166C432.71 225.369 434.318 223.965 437.461 224.023Z"/>
	<path fill="#40637E" d="M479.579 474.284L480.511 473.875C478.957 505.264 476.235 536.684 474.262 568.053Q502.079 568.222 529.895 568.039C539.559 568.007 549.418 567.593 559.062 568.068C553.558 568.875 534.606 567.511 531.502 569.431C518.931 569.941 506.244 569.565 493.658 569.626Q455.396 569.945 417.131 569.881C419.132 569.566 419.725 569.467 421.13 568.016L473.544 567.949Q475.025 541.436 476.847 514.945C477.774 501.412 479.044 487.836 479.579 474.284Z"/>
	<path fill="#E8F5FC" d="M421.311 498.737C435.336 491.265 464.504 476.877 479.579 474.284C479.044 487.836 477.774 501.412 476.847 514.945Q475.025 541.436 473.544 567.949L421.13 568.016C420.48 544.948 421.58 521.81 421.311 498.737Z"/>
	<path fill="#40637E" d="M500.11 319.328C493.035 315.121 487.176 309.867 485.02 301.531C482.981 293.648 484.497 283.196 488.705 276.21C492.981 269.11 501.864 263.247 509.87 261.314C516.568 259.696 524.493 261.444 530.201 265.211C538.335 270.578 544.995 283.228 546.689 292.727C547.673 298.243 546.896 303.383 543.653 308.023C540.261 312.878 535.104 316.408 529.999 319.255C535.878 319.666 546.632 320.023 550.784 324.867C551.322 325.495 551.764 326.217 552.192 326.922L551.425 328.153C552.981 332.342 555.822 337.776 556.111 342.181C555.956 342.44 555.707 343.02 555.446 343.157C555.824 345.5 556.185 347.845 556.647 350.174C557.095 353.526 557.537 362.411 558.904 364.884C560.284 382.345 564.106 396.146 551.753 410.547C546.864 416.247 541.365 420.707 535.939 425.79C534.526 426.26 533.49 427.209 532.344 428.124C531.648 430.582 530.954 432.652 529.612 434.864C526.553 435.703 524.26 436.895 521.007 436.653L520.367 436.756Q519.888 436.436 519.424 436.095C517.417 434.611 516.441 432.881 516.169 430.4C515.827 427.281 517.026 424.259 518.975 421.851C520.661 419.768 522.371 419.683 524.879 419.359C526.786 417.442 528.521 415.433 530.259 413.364C530.066 409.496 530.07 404.277 531.15 400.544C531.534 404.781 531.611 408.484 530.81 412.672C534.449 408.366 538.105 403.948 541.027 399.117C540.466 395.245 540.024 391.44 539.83 387.531C532.906 387.512 525.989 387.691 519.089 387.031L518.74 386.572L518.523 386.939L517.58 386.702L518.911 386.515C518.057 386.971 518.502 386.921 517.577 386.679C524.37 385.49 532.576 386.3 539.534 386.271C539.513 384.036 539.362 381.799 539.247 379.567L512.476 379.394C512.531 392.563 509.834 505.63 507.715 510.026L507.147 509.54C508.604 468.693 510.714 427.926 511.448 387.052C504.946 387.145 498.391 386.61 491.905 386.963C491.333 388.302 490.744 389.46 489.943 390.677L489.697 391.046C490.89 387.582 490.302 386.118 489.526 382.714C489.479 380.292 490.388 378.096 490.416 375.766C490.454 372.429 488.281 368.987 488.17 365.504Q486.908 360.427 485.795 355.316L486.266 352.529L486.54 352.412C487.678 350.405 487.506 348.097 487.307 345.864C487.386 341.606 488.268 337.316 488.487 333.034C484.419 332.394 480.34 331.723 476.242 331.3C470.25 330.683 462.481 331.119 456.937 328.976C442.361 322.13 432.092 305.066 420.885 293.916L420.383 293.422L420.7 292.503C424.308 295.678 427.21 299.518 430.33 303.155C437.466 311.47 446.035 321.624 455.48 327.312C463.617 326.17 471.829 325.155 479.888 323.551C486.619 322.211 493.303 320.178 500.11 319.328Z"/>
	<path fill="#3EA2E4" d="M541.601 371.94C543.412 375.49 544.483 380.495 544.892 384.458C545.016 385.653 545.218 386.437 544.436 387.418C542.649 383.967 540.522 380.649 541.081 376.613C541.135 376.22 541.186 375.825 541.218 375.43C541.313 374.257 541.436 373.106 541.601 371.94Z"/>
	<path fill="#B1CDEE" d="M541.241 384.408C542.2 385.587 543.953 387.33 544.401 388.776C545.163 391.231 543.978 392.961 542.932 395.102L542.344 396.299L541.729 396.171C540.544 392.39 540.886 388.294 541.241 384.408Z"/>
	<path fill="#3EA2E4" d="M491.455 376.147C495.565 376.06 508.594 374.949 511.359 376.795L511.256 378.227C507.664 378.201 493.35 378.858 491.185 377.396L491.455 376.147Z"/>
	<path fill="#3EA2E4" d="M511.717 376.152C516.267 375.669 535.409 375.046 538.804 376.577L539.389 378.214C535.661 378.782 515.822 379.075 512.946 377.986C512.173 377.693 512.049 376.855 511.717 376.152Z"/>
	<path fill="#3EA2E4" d="M490.295 378.959Q500.909 378.967 511.517 379.307L511.532 386.167C506.572 386.145 495.082 387.128 490.888 385.063C490.075 383.362 490.336 380.836 490.295 378.959Z"/>
	<path fill="#FEFEFE" d="M508.023 310.029C512.667 311.855 516.086 311.118 520.761 310.048C521.638 312.972 521.434 318.977 523.504 320.98C524.262 321.713 523.991 321.046 524.173 322.115L522.078 324.158L522.469 324.391L525.361 322.567L525.675 323.023C524.547 332.346 519.028 341.605 514.974 349.935C513.84 352.175 512.878 354.461 511.919 356.778C509.382 346.138 507.642 334.751 506.336 323.889C507.897 324.698 510.356 326.184 512.12 325.726C509.998 325.058 506.99 324.011 505.856 322.122C506.593 321.625 506.261 321.748 507.143 321.561C507.351 321.517 507.562 321.484 507.772 321.445C508.476 317.973 507.793 313.673 508.023 310.029Z"/>
	<path fill="#FEFEFE" d="M512.747 272.378C515.422 276.294 516.608 280.261 520.358 283.524C520.547 283.688 520.742 283.844 520.932 284.007C523.479 286.204 527.038 286.178 530.012 287.627C530.33 288.422 530.652 289.237 530.843 290.074C531.79 294.216 529.818 299.04 527.499 302.388C524.977 306.029 521.196 309.006 516.756 309.779C511.957 310.615 508.234 309.193 504.328 306.579C503.863 306.145 503.413 305.716 502.981 305.251C499.366 301.359 498.268 295.818 498.566 290.641C498.669 288.865 498.833 287.418 500.205 286.214C501.305 286.586 500.837 288.397 501.783 289.529C503.522 289.894 506.079 291.13 507.644 290.525L507.817 289.812L506.374 289.813C506.68 288.835 507.334 287.886 507.832 286.987C507.226 285.659 504.636 285.751 503.284 284.854L503.777 284.089C505.271 284.397 506.727 284.723 508.256 284.798C507.222 283.935 505.856 283.098 505.436 281.771C508.032 278.753 510.101 275.396 512.747 272.378Z"/>
	<path fill="#40637E" d="M515.578 283.178C515.907 283.14 516.235 283.096 516.565 283.064C518.278 282.896 520.136 283.635 521.356 284.88C522.329 285.872 522.364 286.771 522.444 288.096C521.975 289.722 520.731 290.485 519.472 291.498C517.97 290.042 517.329 287.976 517.251 285.904L519.576 285.231L519.466 284.731C517.817 284.444 516.627 284.538 515.578 283.178Z"/>
	<path fill="#3EA2E4" d="M456.937 328.976C457.807 328.452 458.535 328.111 459.535 327.883C466.129 326.384 473.002 325.884 479.657 324.627C485.905 323.447 492.172 321.516 498.468 320.694C500.559 320.421 502.701 320.511 504.804 320.527C507.586 338.755 511.357 356.423 511.441 374.941C504.715 374.948 497.939 374.789 491.22 375.054C490.332 372.077 489.651 368.194 488.17 365.504Q486.908 360.427 485.795 355.316L486.266 352.529L486.54 352.412C487.678 350.405 487.506 348.097 487.307 345.864C487.386 341.606 488.268 337.316 488.487 333.034C484.419 332.394 480.34 331.723 476.242 331.3C470.25 330.683 462.481 331.119 456.937 328.976Z"/>
	<path fill="#FEFEFE" d="M555.446 343.157C555.824 345.5 556.185 347.845 556.647 350.174C557.095 353.526 557.537 362.411 558.904 364.884C560.284 382.345 564.106 396.146 551.753 410.547C546.864 416.247 541.365 420.707 535.939 425.79C534.526 426.26 533.49 427.209 532.344 428.124C531.648 430.582 530.954 432.652 529.612 434.864C526.553 435.703 524.26 436.895 521.007 436.653C520.154 435.889 519.342 435.119 518.619 434.227C516.756 431.929 516.975 429.708 517.367 426.888C518.307 420.123 521.9 422.831 525.687 419.637C525.85 419.5 526.004 419.351 526.164 419.209C531.818 414.197 540.443 402.924 543.667 396.212C544.968 393.503 545.83 390.676 545.907 387.658C546.121 379.313 540.963 362.021 538.184 353.937Q542.153 350.723 546.485 348.018Q550.816 345.313 555.446 343.157Z"/>
	<path fill="#3EA2E4" d="M527.616 320.16C533.338 320.355 539.627 320.528 545.052 322.51C548.407 323.736 549.949 324.932 551.425 328.153C552.981 332.342 555.822 337.776 556.111 342.181C549.7 343.718 541.741 349.79 536.806 353.947C538.496 357.41 539.906 361.554 540.28 365.399C540.307 365.676 540.323 365.953 540.347 366.23C540.615 369.281 539.852 372.024 539.136 374.962L512.394 374.959C512.406 369.872 511.579 364.319 512.326 359.284C513.283 352.844 519.492 343.07 522.267 336.682C524.617 331.272 526.179 325.856 527.616 320.16Z"/>
	<path fill="#0093B4" d="M410.282 218.934C408.057 219.238 405.174 219.783 403.341 218.053C402.491 217.251 402.193 216.249 402.452 215.113C402.832 213.45 404.395 211.924 405.786 211.051C409.792 208.54 416.793 208.397 421.298 209.657C423.67 210.321 427.328 211.956 428.221 214.542C428.68 215.872 428.422 216.242 427.885 217.441C425.798 219.192 424.228 219.354 421.533 219.285L420.929 219.265C419.023 223.918 420.154 239.238 420.169 245.033Q421.414 244.576 422.641 244.073C426.135 242.648 429.653 240.266 431.017 236.587C432.226 233.327 431.713 230.21 430.239 227.166C432.71 225.369 434.318 223.965 437.461 224.023C440.371 227.592 441.497 231.397 441.045 236.024C440.52 241.403 437.641 246.193 433.447 249.535C429.552 252.638 425.128 254.139 420.351 255.258C420.274 261.644 418.956 288.509 420.7 292.503L420.383 293.422L420.885 293.916C432.092 305.066 442.361 322.13 456.937 328.976C462.481 331.119 470.25 330.683 476.242 331.3C480.34 331.723 484.419 332.394 488.487 333.034C488.268 337.316 487.386 341.606 487.307 345.864C487.506 348.097 487.678 350.405 486.54 352.412L486.266 352.529L485.795 355.316Q486.908 360.427 488.17 365.504C488.281 368.987 490.454 372.429 490.416 375.766C490.388 378.096 489.479 380.292 489.526 382.714C490.302 386.118 490.89 387.582 489.697 391.046C487.408 393.985 485.851 397.317 484.534 400.78C484.728 412.7 483.66 424.788 482.869 436.681L480.511 473.875L479.579 474.284C464.504 476.877 435.336 491.265 421.311 498.737C421.58 521.81 420.48 544.948 421.13 568.016C419.725 569.467 419.132 569.566 417.131 569.881L411.388 569.911L410.919 567.965L351.852 568.058C348.401 567.851 344.848 567.993 341.385 567.966C326.436 568.575 311.382 567.366 296.439 568.249C305.715 557.409 313.824 545.555 323.061 534.658C345.683 507.972 379.005 479.389 411.086 464.96L411.021 428.315Q410.932 413.043 411.038 397.77L411.294 367.165C411.258 360.808 411.859 318.013 410.684 315.5C410.021 314.086 408.139 312.512 407.182 311.21C404.002 306.88 406.333 298.006 407.047 293.021C408.14 292.479 409.09 291.907 410.08 291.195C411.344 287.725 410.7 260.529 410.139 255.61C405.057 255.211 399.629 253.615 395.406 250.728Q394.988 250.447 394.584 250.146Q394.18 249.844 393.791 249.523Q393.403 249.202 393.03 248.863Q392.658 248.523 392.303 248.165Q391.949 247.807 391.612 247.432Q391.275 247.057 390.958 246.666Q390.64 246.275 390.342 245.868Q390.044 245.462 389.767 245.041Q389.489 244.62 389.233 244.186Q388.977 243.752 388.743 243.306Q388.508 242.86 388.296 242.403Q388.084 241.946 387.895 241.478Q387.706 241.011 387.54 240.535Q387.375 240.059 387.233 239.576Q387.091 239.092 386.973 238.602Q386.855 238.112 386.762 237.617C386.082 233.88 386.375 229.347 388.738 226.207C389.776 224.828 391.374 223.783 393.15 223.78C395.583 223.777 397.118 225.797 398.688 227.381C398.031 228.877 397.347 230.459 396.922 232.037C396.279 234.415 396.835 237.378 398.199 239.414C400.949 243.52 405.563 244.628 410.093 245.499C410.557 236.677 410.3 227.768 410.282 218.934Z"/>
	<path fill="#E8F5FC" d="M407.613 297.708C408.915 297.765 409.75 297.997 410.946 298.509C411.72 299.597 411.758 299.877 411.904 301.216C410.476 301.188 409.175 301.111 407.775 300.829C407.059 299.518 407.346 299.14 407.613 297.708Z"/>
	<path fill="#E8F5FC" d="M421.306 322.716C442.976 346.191 445.19 350.53 478.032 351.526C480.317 351.595 484.349 351.284 486.266 352.529L485.795 355.316C469.818 356.101 453.527 358.638 437.836 361.696C432.179 362.798 426.55 364.353 420.886 365.327C421.453 351.16 421.049 336.902 421.306 322.716Z"/>
	<path fill="#FEFEFE" d="M408.457 293.584L409.562 293.85L409.693 294.989C411.744 296.504 413.909 297.819 415.959 299.347L416.446 299.112C415.804 297.826 415.184 296.568 414.686 295.216C415.305 293.87 415.415 293.63 416.623 292.795C418.219 292.613 418.936 292.853 420.383 293.422L420.885 293.916C432.092 305.066 442.361 322.13 456.937 328.976C462.481 331.119 470.25 330.683 476.242 331.3C480.34 331.723 484.419 332.394 488.487 333.034C488.268 337.316 487.386 341.606 487.307 345.864C487.21 346.521 487.142 347.298 486.957 347.944C486.62 349.114 486.392 349.765 485.227 350.292C482.398 351.571 456.366 348.921 452.451 347.649C442.394 344.383 434.315 334.784 427.181 327.399C425.75 325.917 422.493 323.248 421.815 321.367C420.949 318.963 421.698 316.203 422.743 313.991C421.688 310.488 419.53 303.237 417.032 300.713C416.707 302.466 417.378 303.05 417.869 304.6C418.391 306.252 418.102 308.223 417.109 309.643C415.986 311.247 414.024 312.209 412.146 312.583C410.897 312.831 409.587 312.652 408.58 311.814C407.618 311.013 407.2 309.673 407.179 308.457C407.157 307.096 407.65 306.368 408.527 305.409C409.909 305.027 410.144 305.054 411.534 305.426L411.945 306.289L410.721 306.775L410.402 306.387L409.216 307.303C409.602 307.515 410.254 307.904 410.674 307.99C411.85 308.23 412.294 307.828 413.095 307.135C412.919 302.945 409.144 305.189 406.911 302.996L407.099 302.053C409.624 301.613 412.12 302.362 414.665 302.301L414.652 301.618C413.22 299.785 411.215 297.666 408.96 296.92C408.661 296.821 408.356 296.74 408.054 296.651C407.734 295.428 408.069 294.74 408.457 293.584Z"/>
	<path fill="#E8F5FC" d="M420.848 425.134C426.05 422.845 432.244 421.48 437.727 419.965C452.897 415.773 468.122 412.403 483.529 409.248C483.255 419.91 482.422 430.603 481.715 441.245C460.705 444.401 440.772 452.594 421.038 460C420.809 448.386 421.04 436.754 420.848 425.134Z"/>
	<path fill="#E8F5FC" d="M341.385 567.966C344.537 563.506 348.567 559.433 352.251 555.412C367.538 538.726 389.937 517.133 409.527 505.668C410.202 505.274 409.833 505.363 410.738 505.608C410.433 517.096 410.754 528.635 410.839 540.129C410.907 549.4 410.708 558.699 410.919 567.965L351.852 568.058C348.401 567.851 344.848 567.993 341.385 567.966Z"/>
	<path fill="#FE617B" d="M485.795 355.316Q486.908 360.427 488.17 365.504C488.281 368.987 490.454 372.429 490.416 375.766C490.388 378.096 489.479 380.292 489.526 382.714C490.302 386.118 490.89 387.582 489.697 391.046C487.408 393.985 485.851 397.317 484.534 400.78C483.673 403.709 483.636 406.234 483.529 409.248C468.122 412.403 452.897 415.773 437.727 419.965C432.244 421.48 426.05 422.845 420.848 425.134C420.545 415.098 420.655 405.016 420.619 394.973C420.585 385.277 419.836 374.932 420.886 365.327C426.55 364.353 432.179 362.798 437.836 361.696C453.527 358.638 469.818 356.101 485.795 355.316Z"/>
	<path fill="#E8F5FC" d="M437.461 224.023C440.89 223.245 454.757 214.115 459.184 211.786Q473.174 204.6 487.654 198.461C548.236 173.091 614.377 169.247 675.287 195.593C683.44 199.119 691.624 203.481 699.2 208.128C704.951 211.656 711.393 216.599 717.671 219.026C717.91 219.118 718.151 219.204 718.391 219.293C692.495 229.438 666.772 239.188 639.926 246.642C621.907 251.645 602.721 254.384 585.198 260.917C580.853 262.537 576.716 264.076 574.71 268.627C572.017 274.734 576.822 283.347 576.971 289.77C577.313 304.544 565.495 321.077 552.192 326.922C551.764 326.217 551.322 325.495 550.784 324.867C546.632 320.023 535.878 319.666 529.999 319.255C535.104 316.408 540.261 312.878 543.653 308.023C546.896 303.383 547.673 298.243 546.689 292.727C544.995 283.228 538.335 270.578 530.201 265.211C524.493 261.444 516.568 259.696 509.87 261.314C501.864 263.247 492.981 269.11 488.705 276.21C484.497 283.196 482.981 293.648 485.02 301.531C487.176 309.867 493.035 315.121 500.11 319.328C493.303 320.178 486.619 322.211 479.888 323.551C471.829 325.155 463.617 326.17 455.48 327.312C446.035 321.624 437.466 311.47 430.33 303.155C427.21 299.518 424.308 295.678 420.7 292.503C418.956 288.509 420.274 261.644 420.351 255.258C425.128 254.139 429.552 252.638 433.447 249.535C437.641 246.193 440.52 241.403 441.045 236.024C441.497 231.397 440.371 227.592 437.461 224.023Z"/>
	<path fill="#E8F5FC" d="M718.391 219.293C719.297 219.914 719.277 219.919 719.581 220.979C720.106 221.811 720.455 221.941 721.316 222.279C725.569 223.948 738.761 234.633 742.179 238.222C750.752 246.162 759.027 255.02 766.434 264.05C773.34 272.105 779.465 280.916 785.725 289.475C789.155 293.734 802.865 314.533 804.227 319.102Q813.538 335.046 821.025 351.924C824.587 357.55 826.881 364.404 829.484 370.529Q836.644 387.562 844.095 404.471C850.438 418.753 858.642 433.208 864.37 447.498C875.387 469.604 888.927 490.276 902.356 510.957C906.242 515.979 909.358 521.686 912.975 526.919C919.068 535.734 925.615 544.231 931.723 553.042C934.567 557.143 938.058 563.529 941.308 566.921L943.158 568.284C941.877 568.905 940.941 568.939 939.533 568.967C915.8 569.434 891.978 569.045 868.238 569.056L731.287 569.121L603.147 569.173C579.281 569.242 555.366 569.804 531.502 569.431C534.606 567.511 553.558 568.875 559.062 568.068L565.718 567.991C564.462 559.332 563.543 550.461 561.763 541.9C557.544 536.827 552.548 532.834 546.779 529.626C540.895 526.355 533.297 523.682 528.755 518.577C526.245 515.756 524.707 512.045 524.11 508.339C522.913 500.904 523.907 492.554 524.2 485.03L526.455 438.649L525.958 438.718L526.468 438.199L526.459 437.7C524.933 436.25 523.126 437.71 521.182 437.052C520.908 436.96 520.639 436.855 520.367 436.756L521.007 436.653C524.26 436.895 526.553 435.703 529.612 434.864C530.954 432.652 531.648 430.582 532.344 428.124C533.49 427.209 534.526 426.26 535.939 425.79C541.365 420.707 546.864 416.247 551.753 410.547C564.106 396.146 560.284 382.345 558.904 364.884C557.537 362.411 557.095 353.526 556.647 350.174C556.185 347.845 555.824 345.5 555.446 343.157C555.707 343.02 555.956 342.44 556.111 342.181C555.822 337.776 552.981 332.342 551.425 328.153L552.192 326.922C565.495 321.077 577.313 304.544 576.971 289.77C576.822 283.347 572.017 274.734 574.71 268.627C576.716 264.076 580.853 262.537 585.198 260.917C602.721 254.384 621.907 251.645 639.926 246.642C666.772 239.188 692.495 229.438 718.391 219.293Z"/>
	<path fill="#2D4559" d="M558.904 364.884C562.171 368.985 560.746 389.744 560.869 396.255C560.543 397.789 560.255 399.312 559.708 400.787C557.636 405.1 554.742 408.468 551.607 412.047C553.118 418.629 554.879 425.562 554.417 432.361C555.117 442.886 556.407 453.775 556.445 464.294C558.401 487.547 559.802 510.775 562.181 534.008C563.318 545.111 564.189 556.674 566.721 567.549L808.344 567.234L897.417 567.227C912.003 567.175 926.745 567.525 941.308 566.921L943.158 568.284C941.877 568.905 940.941 568.939 939.533 568.967C915.8 569.434 891.978 569.045 868.238 569.056L731.287 569.121L603.147 569.173C579.281 569.242 555.366 569.804 531.502 569.431C534.606 567.511 553.558 568.875 559.062 568.068L565.718 567.991C564.462 559.332 563.543 550.461 561.763 541.9C557.544 536.827 552.548 532.834 546.779 529.626C540.895 526.355 533.297 523.682 528.755 518.577C526.245 515.756 524.707 512.045 524.11 508.339C522.913 500.904 523.907 492.554 524.2 485.03L526.455 438.649L525.958 438.718L526.468 438.199L526.459 437.7C524.933 436.25 523.126 437.71 521.182 437.052C520.908 436.96 520.639 436.855 520.367 436.756L521.007 436.653C524.26 436.895 526.553 435.703 529.612 434.864C529.176 435.572 528.116 436.019 527.404 436.453C527.211 436.951 527.116 437.133 527.029 437.725C526.269 442.856 526.679 448.786 526.433 454.014L525.048 484.546C524.728 491.687 523.847 499.573 524.893 506.66C525.62 511.59 527.097 516.282 531.013 519.6C533.782 521.947 537.07 523.48 540.268 525.143C548.701 529.528 555.832 533.674 562.004 541.05C560.039 522.032 557.861 502.884 556.812 483.793C555.562 461.029 555.452 434.525 551.202 412.466C546.907 417.283 541.909 423.076 535.939 425.79C541.365 420.707 546.864 416.247 551.753 410.547C564.106 396.146 560.284 382.345 558.904 364.884Z"/>
	<path fill="#3EA2E4" d="M535.939 425.79C541.909 423.076 546.907 417.283 551.202 412.466C555.452 434.525 555.562 461.029 556.812 483.793C557.861 502.884 560.039 522.032 562.004 541.05C555.832 533.674 548.701 529.528 540.268 525.143C537.07 523.48 533.782 521.947 531.013 519.6C527.097 516.282 525.62 511.59 524.893 506.66C523.847 499.573 524.728 491.687 525.048 484.546L526.433 454.014C526.679 448.786 526.269 442.856 527.029 437.725C527.116 437.133 527.211 436.951 527.404 436.453C528.116 436.019 529.176 435.572 529.612 434.864C530.954 432.652 531.648 430.582 532.344 428.124C533.49 427.209 534.526 426.26 535.939 425.79Z"/>
	<path fill="#B1CDEE" d="M769.313 490.186C774.411 491.639 779.03 494.531 784.461 494.68C804.754 495.239 819.073 475.999 832.204 463.314C841.218 454.606 851.414 447.239 864.37 447.498C875.387 469.604 888.927 490.276 902.356 510.957C885.666 511.687 868.948 511.585 852.245 511.837Q803.57 512.708 754.887 512.43C754.939 507.344 755.524 501.709 758.179 497.261C760.87 492.752 764.513 491.405 769.313 490.186Z"/>
	<path fill="#0093B4" d="M785.725 289.475C789.155 293.734 802.865 314.533 804.227 319.102Q813.538 335.046 821.025 351.924C815.935 359.861 808.743 367.266 802.082 373.923C755.834 420.147 689.357 438.826 627.191 452.37C604.203 457.379 579.851 462.14 556.445 464.294C556.407 453.775 555.117 442.886 554.417 432.361C554.879 425.562 553.118 418.629 551.607 412.047C554.742 408.468 557.636 405.1 559.708 400.787C565.403 398.755 572.466 398.291 578.479 397.247Q591.835 394.932 605.001 391.703C654.74 379.456 709.068 364.33 748.88 330.379C762.995 318.342 774.824 304.405 785.725 289.475Z"/>
	<path fill="#E8F5FC" d="M785.725 289.475C789.155 293.734 802.865 314.533 804.227 319.102C791.354 333.728 780.734 346.943 765.436 359.254C717.889 397.516 657.689 412.733 598.938 424.16C584.977 426.875 568.268 430.721 554.417 432.361C554.879 425.562 553.118 418.629 551.607 412.047C554.742 408.468 557.636 405.1 559.708 400.787C565.403 398.755 572.466 398.291 578.479 397.247Q591.835 394.932 605.001 391.703C654.74 379.456 709.068 364.33 748.88 330.379C762.995 318.342 774.824 304.405 785.725 289.475Z"/>
	<path fill="#0093B4" d="M718.391 219.293C719.297 219.914 719.277 219.919 719.581 220.979C720.106 221.811 720.455 221.941 721.316 222.279C725.569 223.948 738.761 234.633 742.179 238.222C750.752 246.162 759.027 255.02 766.434 264.05C773.34 272.105 779.465 280.916 785.725 289.475C774.824 304.405 762.995 318.342 748.88 330.379C709.068 364.33 654.74 379.456 605.001 391.703Q591.835 394.932 578.479 397.247C572.466 398.291 565.403 398.755 559.708 400.787C560.255 399.312 560.543 397.789 560.869 396.255C560.746 389.744 562.171 368.985 558.904 364.884C557.537 362.411 557.095 353.526 556.647 350.174C556.185 347.845 555.824 345.5 555.446 343.157C555.707 343.02 555.956 342.44 556.111 342.181C555.822 337.776 552.981 332.342 551.425 328.153L552.192 326.922C565.495 321.077 577.313 304.544 576.971 289.77C576.822 283.347 572.017 274.734 574.71 268.627C576.716 264.076 580.853 262.537 585.198 260.917C602.721 254.384 621.907 251.645 639.926 246.642C666.772 239.188 692.495 229.438 718.391 219.293Z"/>
	<path fill="#FEFEFE" d="M693.758 283.931L694.5 284.205C693.012 285.816 691.477 287.367 689.918 288.909L689.938 289.224L693.611 286.945L694.197 287.393C684.041 295.673 670.991 302.758 658.612 307.085C650.813 302.838 652.007 304.937 644.537 303.35L645.653 303.388C645.957 302.999 645.733 303.166 646.454 303.154C651.167 303.077 655.657 302.925 660.296 301.985C672.735 299.462 684.754 292.83 693.758 283.931Z"/>
	<path fill="#E8F5FC" d="M719.581 220.979C720.106 221.811 720.455 221.941 721.316 222.279C725.569 223.948 738.761 234.633 742.179 238.222C728.903 256.814 713.768 275.058 694.197 287.393L693.611 286.945L689.938 289.224L689.918 288.909C691.477 287.367 693.012 285.816 694.5 284.205L693.758 283.931C696.19 280.312 698.363 276.556 699.731 272.392C700.456 270.186 701.205 267.984 700.08 265.805C690.851 264.654 674.317 269.13 663.552 269.143L662.775 269.14C668.252 267.216 674.032 266.476 679.658 265.106C689.101 262.806 699.711 257.542 707.166 251.298C716.838 243.197 718.462 232.825 719.581 220.979Z"/>
	<path fill="#FE617B" d="M742.179 238.222C750.752 246.162 759.027 255.02 766.434 264.05C773.34 272.105 779.465 280.916 785.725 289.475C774.824 304.405 762.995 318.342 748.88 330.379C709.068 364.33 654.74 379.456 605.001 391.703Q591.835 394.932 578.479 397.247C572.466 398.291 565.403 398.755 559.708 400.787C560.255 399.312 560.543 397.789 560.869 396.255C561.807 396.461 562.386 396.563 563.331 396.266C567.872 394.837 574.581 386.73 576.686 382.548C578.136 379.668 576.952 377.577 575.975 374.775C578.244 373.914 578.789 373.82 581.081 374.851C583.227 375.818 584.817 376.371 587.225 376.566C596.299 376.586 602.344 374.532 609.424 368.864L612.983 364.996C609.667 362.98 606.61 361.013 603.87 358.236C608.364 357.902 612.864 358.048 617.362 357.595C624.237 356.902 631.527 355.012 636.066 349.428C636.807 348.023 638.238 345.725 637.966 344.091C637.328 340.262 628.763 337.642 625.71 335.569L625.037 335.107Q628.766 335.398 632.5 335.189C642.857 334.577 653.677 330.256 660.583 322.272C662.658 319.873 664.277 317.043 663.948 313.77C663.609 310.417 661.06 308.943 658.612 307.085C670.991 302.758 684.041 295.673 694.197 287.393C713.768 275.058 728.903 256.814 742.179 238.222Z"/>
	<path fill="#E8F5FC" d="M943.158 568.284C943.799 571.093 946.672 574.588 948.217 577.059C956.889 590.92 970.883 608.302 974.736 624.018C941.453 628.023 911.009 638.32 882.671 656.339C876.137 660.493 869.41 664.787 863.676 670.009C856.069 676.936 850.988 685.853 843.83 693.047C816.495 658.513 780.32 636.771 737.276 627.646C732.782 642.126 730.565 657.152 729.102 672.211C724.861 715.86 728.158 765.669 749.535 804.935C749.759 805.345 750.006 805.742 750.259 806.134C729.299 806.764 708.178 806.235 687.196 806.251L568.903 806.357L208.749 806.082C221.476 777.253 232.411 748.269 233.086 716.324C234.018 672.231 212.345 627.517 181.984 596.218Q174.29 588.276 165.73 581.276C161.457 577.79 156.514 574.44 152.756 570.446C152.649 570.332 152.545 570.215 152.44 570.099C152.277 570.05 152.109 570.015 151.951 569.95C150.651 569.41 150.536 569.303 150 568.068C153.433 568.059 156.882 568.118 160.312 567.98L162.712 568.14C178.576 567.941 194.441 568.246 210.302 568.075C224.803 568.142 239.314 568.313 253.814 568.209L256.204 568.216L282.334 568.116C286.801 568.084 292.059 567.53 296.439 568.249C311.382 567.366 326.436 568.575 341.385 567.966C344.848 567.993 348.401 567.851 351.852 568.058L410.919 567.965L411.388 569.911L417.131 569.881Q455.396 569.945 493.658 569.626C506.244 569.565 518.931 569.941 531.502 569.431C555.366 569.804 579.281 569.242 603.147 569.173L731.287 569.121L868.238 569.056C891.978 569.045 915.8 569.434 939.533 568.967C940.941 568.939 941.877 568.905 943.158 568.284Z"/>
	<path fill="#2D4559" d="M459.445 789.64C463.639 789.536 469.677 788.672 473.689 789.978L474.332 791.385C470.666 791.676 462.909 792.687 459.739 791.116L459.445 789.64Z"/>
	<path fill="#2D4559" d="M371.426 789.694C378.643 789.677 436.435 788.718 438.914 789.909C439.555 790.217 439.508 791.219 439.648 791.858C434.154 791.959 374.074 792.425 372.657 792.026C372.293 791.923 371.996 791.658 371.666 791.474L371.426 789.694Z"/>
	<path fill="#40637E" d="M296.439 568.249C311.382 567.366 326.436 568.575 341.385 567.966C344.848 567.993 348.401 567.851 351.852 568.058L410.919 567.965L411.388 569.911L323.716 569.877C328.676 568.773 334.518 569.346 339.597 569.35C334.867 566.814 304.627 569.846 296.439 568.249Z"/>
	<path fill="#2D4559" d="M256.204 568.216L282.334 568.116C286.801 568.084 292.059 567.53 296.439 568.249C304.627 569.846 334.867 566.814 339.597 569.35C334.518 569.346 328.676 568.773 323.716 569.877C316.215 570.246 308.57 569.981 301.054 570.004C290.787 570.035 280.482 570.247 270.219 569.962C237.599 570.516 204.778 570.327 172.154 569.892C165.595 570.095 159.004 570.033 152.44 570.099C152.277 570.05 152.109 570.015 151.951 569.95C150.651 569.41 150.536 569.303 150 568.068C153.433 568.059 156.882 568.118 160.312 567.98L162.712 568.14C178.576 567.941 194.441 568.246 210.302 568.075C224.803 568.142 239.314 568.313 253.814 568.209L256.204 568.216Z"/>
	<path fill="#40637E" d="M321.546 606.023L339.018 606.026L339.001 680.979L321.587 681.001L321.546 606.023Z"/>
	<path fill="#40637E" d="M410.719 605.984L428.381 605.941C428.601 630.956 428.317 655.997 428.274 681.014L410.767 681.027C411.141 656.029 410.681 630.989 410.719 605.984Z"/>
	<path fill="#40637E" d="M461.418 604.683C470.271 603.502 478.659 606.64 486.4 610.565Q483.471 618.172 480.303 625.683C475.651 622.91 471.614 620.513 466.052 620.291C463.384 620.184 460.887 620.407 458.904 622.375C458.048 623.224 457.28 624.511 457.366 625.743C457.768 631.469 470.019 635.535 474.503 637.975C477.506 639.61 480.468 641.528 482.937 643.909C487.175 647.994 489.449 653.301 489.325 659.195C489.195 665.337 486.737 671.52 482.116 675.654C475.762 681.338 467.44 682.65 459.255 682.307Q458.022 682.196 456.794 682.035C448.869 681.024 440.709 678.31 435.67 671.794Q439.708 664.958 444.049 658.31C448.922 663.044 454.473 666.604 461.508 666.792C464.551 666.873 467.538 666.133 469.686 663.85C470.699 662.773 471.383 661.392 471.116 659.872C470.037 653.738 455.519 648.158 450.585 644.816C445.437 641.329 440.56 636.141 439.53 629.795C438.549 623.756 440.167 618.598 443.775 613.849C448.4 607.763 454.124 605.664 461.418 604.683Z"/>
	<path fill="#40637E" d="M650.418 604.641Q651.862 604.515 653.309 604.42C666.524 603.569 676.226 607.069 686.088 615.742C682.901 620.517 679.502 625.075 675.58 629.275C672.431 626.132 669.152 623.387 665.002 621.677Q664.556 621.488 664.101 621.322Q663.646 621.156 663.183 621.013Q662.72 620.869 662.251 620.749Q661.781 620.629 661.306 620.532Q660.832 620.436 660.353 620.363Q659.874 620.29 659.392 620.241Q658.91 620.192 658.426 620.167Q657.942 620.142 657.457 620.141Q656.973 620.14 656.489 620.163Q656.005 620.186 655.523 620.233Q655.041 620.28 654.561 620.352Q654.082 620.423 653.607 620.518Q653.132 620.612 652.662 620.731Q652.192 620.849 651.729 620.991Q651.265 621.132 650.81 621.297Q650.354 621.461 649.907 621.648C644.787 623.811 640.917 628.093 638.831 633.197C636.129 639.807 636.102 648.323 639.12 654.822Q639.326 655.274 639.554 655.715Q639.782 656.156 640.033 656.585Q640.283 657.013 640.556 657.429Q640.828 657.844 641.121 658.245Q641.414 658.646 641.727 659.031Q642.04 659.417 642.373 659.786Q642.705 660.154 643.056 660.506Q643.407 660.857 643.775 661.19Q644.144 661.523 644.529 661.837Q644.914 662.151 645.314 662.444Q645.715 662.738 646.13 663.011Q646.545 663.284 646.973 663.535Q647.401 663.786 647.842 664.015Q648.283 664.244 648.734 664.45Q649.186 664.656 649.648 664.839Q650.11 665.022 650.58 665.181C658.511 667.88 665.109 665.859 671.395 660.755C672.75 659.655 674.363 657.841 675.971 657.198C676.116 657.141 676.272 657.112 676.422 657.069C680.196 661.329 683.656 665.993 687.276 670.398C681.378 675.658 675.165 679.706 667.354 681.441C656.744 683.796 643.993 682.493 634.756 676.487Q634.001 675.987 633.272 675.451Q632.542 674.914 631.84 674.343Q631.138 673.771 630.465 673.166Q629.791 672.56 629.148 671.923Q628.506 671.285 627.895 670.616Q627.284 669.948 626.707 669.25Q626.13 668.553 625.588 667.828Q625.046 667.102 624.54 666.352Q624.034 665.601 623.565 664.826Q623.097 664.051 622.667 663.254Q622.237 662.457 621.847 661.64Q621.456 660.823 621.107 659.988Q620.757 659.153 620.449 658.302Q620.141 657.45 619.875 656.585Q619.609 655.719 619.385 654.842Q619.162 653.964 618.982 653.077C616.779 642.254 618.374 629.864 624.644 620.614C630.719 611.655 640.024 606.718 650.418 604.641Z"/>
	<path fill="#40637E" d="M575.757 605.74C585.481 605.608 595.755 604.583 603.937 610.881C609.54 615.194 612.614 621.204 613.377 628.179C614.113 634.912 612.638 642.594 608.145 647.803C600.315 656.881 588.828 655.216 578.159 655.833C577.195 656.831 577.484 657.542 577.45 658.875L577.412 680.935L559.924 680.999L560.011 605.987L575.757 605.74Z"/>
	<path fill="#E8F5FC" d="M577.499 620.662C582.835 620.738 587.901 620.509 592.384 623.908C594.23 625.308 595.878 627.352 596.048 629.746C596.274 632.931 594.446 636.098 592.4 638.373C587.599 641.581 583.034 641.248 577.468 641.241L577.499 620.662Z"/>
	<path fill="#40637E" d="M351.97 606.261C363.019 606.083 376.69 604.368 387.134 608.344C392.509 610.39 396.994 614.282 399.258 619.626C401.637 625.239 401.658 632.36 399.32 637.988C396.623 644.482 391.889 647.731 385.603 650.19C392.386 660.561 399.443 671.169 407.072 680.916L387.889 680.782L386.749 680.695C383.349 678.716 370.198 656.595 366.423 651.502L366.291 680.967L348.553 680.981L348.521 632.903C348.517 624.306 348.074 615.429 348.722 606.873C349.826 606.125 350.67 606.31 351.97 606.261Z"/>
	<path fill="#E8F5FC" d="M366.498 620.521C371.176 620.44 375.625 620.535 379.62 623.369C381.43 624.654 382.963 626.515 383.208 628.786C383.543 631.892 381.935 634.725 379.973 636.975C375.66 639.485 371.292 639.291 366.479 639.23L366.498 620.521Z"/>
	<path fill="#40637E" d="M500.461 605.75C511.622 605.645 525.374 603.98 535.996 607.639C541.369 609.491 545.9 612.948 548.331 618.182C551.12 624.184 551.219 631.778 548.729 637.895C545.979 644.649 541.186 647.943 534.707 650.544C541.499 660.934 549.512 670.524 556.199 681.018L538.875 680.989C538.152 680.957 536.932 681.075 536.274 680.872C531.834 679.507 520.967 655.322 515.634 653.918C513.55 656.257 514.537 676.629 514.547 681.105L496.938 681.057C496.942 671.207 496.078 609.187 497.486 605.956L500.461 605.75Z"/>
	<path fill="#E8F5FC" d="M514.53 620.65C519.593 620.546 525.047 620.065 529.336 623.326C530.921 624.53 532.358 626.251 532.578 628.298C532.901 631.307 531.277 634.627 529.42 636.871C525.001 639.846 519.562 639.324 514.483 639.303L514.53 620.65Z"/>
</svg>
