<?xml version="1.0"?>
<svg width="1024" height="1024" xmlns="http://www.w3.org/2000/svg" xmlns:svg="http://www.w3.org/2000/svg">
 <g class="layer">
  <title>Layer 1</title>
  <path d="m0,0l1024,0l0,1024l-1024,0l0,-1024z" fill="#FCFBFB" id="svg_1"/>
  <path d="m528.46,322.78c1,0.71 2.03,1.48 3.16,1.99c2.34,1.05 4.74,0.56 7.04,-0.37c7.67,-3.1 16.71,-12.1 22.29,-18.11c19.98,-21.54 35.49,-47.53 47.41,-74.28c6.56,-14.72 12.24,-29.86 18.62,-44.67c6.89,20.92 5.13,40.35 -3.62,60.19c4.46,-3.85 9.38,-7.23 13.97,-10.94q11.61,-9.41 21.65,-20.48c3.08,-3.37 6.06,-6.91 8.66,-10.69c1.62,-2.36 2.83,-5.06 4.81,-7.14c1.45,-0.29 1.73,-0.06 3.13,0.5c4.42,12.83 3.27,25.45 -2.64,37.67c-7.07,14.63 -17.95,22.7 -32.16,29.73c26.64,-2.49 44.15,-11.35 61.36,-32.24q2.59,-3.16 4.79,-6.59c-3.27,21.87 -10.72,43.06 -29.15,56.67c-15.48,11.43 -32.73,14.71 -51.58,15.49c7.31,4.02 17.13,5.61 25.36,6.85c6.84,-1.26 13.6,-3.94 20.02,-6.58c31.31,-12.87 56.94,-33.7 82.39,-55.46c14.93,13.94 27.91,29.07 37.97,46.94c-6.87,8.6 -14.64,15.84 -22.94,23.01c-29.79,25.77 -63.28,43.04 -100.35,55.79c-13.05,4.48 -26.33,8.65 -39.82,11.57c-6.47,1.39 -36.49,5.43 -40.11,8.01c-5.35,1.44 -11.35,1.61 -16.86,1.73l-16.19,1.37c-0.34,5.2 -2.22,10.66 -3.46,15.76c-1.92,7.81 -3.64,15.68 -4.62,23.67c-2.09,12.44 -1.35,26.59 -0.22,39.13c-0.98,2.59 -1.86,4.98 -4.63,6.08c-1.06,0.42 -2.2,0.69 -3.3,0.97c1.55,7.04 3.96,13.85 6.23,20.68c9.35,28.12 22.26,53.82 36.74,79.6q-56.69,-0.24 -113.39,0.2c-0.09,-4.76 1.09,-10.06 1.68,-14.82q1.48,-12.11 2.57,-24.26c1.81,-19.35 2.22,-38.79 4,-58.1c-19.81,5.12 -39.36,11.62 -57.45,21.35l0.29,75.88c-4.76,0.28 -9.62,0.04 -14.38,0.01q0.36,-34.48 0.37,-68.96c0.22,-21.21 1.36,-43.11 0.26,-64.26l0,-15.67c0.39,-6.26 -0.28,-12.93 -0.24,-19.25q0.36,-24.01 0.32,-48.02c0.09,-27.59 -0.81,-55.64 0.82,-83.18l0.25,-20.38c0,-2.64 0.1,-5.31 -0.05,-7.94c-1.59,-2.65 -3.24,-5.05 -5.39,-7.3c-5.83,-6.1 -16.78,-12.89 -14.63,-22.73c0.75,-3.46 2.86,-6.34 5.87,-8.19c3.07,-1.88 6.5,-2.23 9.96,-1.29c3.96,1.08 6.97,3.56 9.82,6.38c3.49,-3.53 7.48,-6.45 12.65,-6.57c3.34,-0.07 7.11,1.18 9.52,3.56c2.29,2.27 3.73,5.91 3.72,9.12c-0.03,11.18 -14.98,17.68 -18.67,28.07c-2.22,6.26 -0.54,14.2 -1.36,20.84c10.25,6.71 9.87,14.73 14.49,25.01c2.21,4.92 5.18,9.2 8.41,13.48c7.8,8.14 15.52,14.83 26.58,18.02c8.03,-3.14 31.53,-3.96 35.86,-11.14c-0.57,-6.72 -5.77,-8.07 -8.69,-13.53c-3.74,-6.98 -3.43,-16.56 -1.29,-24l1.11,1.54c-1.87,6.78 -1.62,16.05 1.83,22.29c2.22,4.03 5.07,6.15 9.35,7.53c-0.13,2.03 -0.21,4.08 -0.43,6.1c3.25,2.81 6.03,4.63 10.58,4.15c4.97,-0.52 6.5,-4.11 10.01,-5.04c-0.03,0.88 -0.29,1.19 -0.72,1.93c0.26,1.39 1.47,2.33 2.42,3.32z" fill="#395163" id="svg_2"/>
  <path d="m753.97,244.32c14.93,13.94 27.91,29.07 37.97,46.94c-6.87,8.6 -14.64,15.84 -22.94,23.01c-29.79,25.77 -63.28,43.04 -100.35,55.79c-13.05,4.48 -26.33,8.65 -39.82,11.57c-6.47,1.39 -36.49,5.43 -40.11,8.01c-10.15,-7.51 -14.06,-17.65 -17.69,-29.4c5.2,6.18 10.86,12.49 18.34,15.94c8.83,4.05 18.29,3.68 27.26,0.41c-10.86,-6.86 -16.71,-14.66 -21.07,-26.67c4.01,4.38 8.68,7.43 14.32,9.29c13.67,4.53 26.52,1.38 39,-4.8c-15.38,-6.69 -26,-14.95 -34.88,-29.28c11.61,8.33 23.31,12.08 37.66,10.7c18.16,-1.75 33.5,-12.04 44.91,-25.83c-14.81,0.54 -30.55,-0.24 -45.01,-3.64c6.84,-1.26 13.6,-3.94 20.02,-6.58c31.31,-12.87 56.94,-33.7 82.39,-55.46z" fill="#ED706F" id="svg_3"/>
  <path d="m457.17,347.3c6.48,2.83 12.92,5.45 19.99,6.45c-4.97,19.67 2.35,28.31 2.38,47.01c-20.15,5.88 -40.41,10.4 -59.59,19.26c0.44,-20.46 -0.31,-40.95 0.11,-61.41c5.28,-1.21 10.6,-3.23 15.83,-4.76c6.73,-1.97 15.1,-3.28 21.28,-6.55z" fill="#ED706F" id="svg_4"/>
  <path d="m419.95,420.02c19.18,-8.86 39.44,-13.38 59.59,-19.26c0.31,14.23 0.8,29.98 -0.64,44.1c-19.95,5.27 -39.92,10.84 -59.01,18.74q-0.19,-21.79 0.06,-43.58z" fill="#FCFBFB" id="svg_5"/>
  <path d="m419.89,463.6c19.09,-7.9 39.06,-13.47 59.01,-18.74c-0.85,9.73 -0.52,19.58 -1.08,29.34c-0.14,2.34 0,5.19 -0.55,7.45c-19.81,5.12 -39.36,11.62 -57.45,21.35c0.46,-13.08 0.05,-26.31 0.07,-39.4z" fill="#3AC4B7" id="svg_6"/>
  <path d="m420.06,358.61c1.18,-22.23 -1.52,-44.63 0.3,-66.79c0.8,5.72 1.98,11.21 3.89,16.67c6.02,17.21 16.37,30.82 32.92,38.81c-6.18,3.27 -14.55,4.58 -21.28,6.55c-5.23,1.53 -10.55,3.55 -15.83,4.76z" fill="#FCFBFB" id="svg_7"/>
  <path d="m526.56,323.48c-2.58,8.88 -5.1,19.77 -12.84,25.71c-2.83,2.18 -6.35,3.51 -9.96,2.96c-2.97,-0.45 -5.59,-2.24 -7.23,-4.74c-2.57,-3.92 -2.75,-9.36 -1.61,-13.78c1.61,-6.25 5.5,-10.15 10.81,-13.4c3.19,2.6 5.52,4.25 9.87,3.9c2.93,-0.23 7.14,-2.54 9.74,-2l1.22,1.35z" fill="#FCFBFB" id="svg_8"/>
  <path d="m494.31,280.96l1.11,1.54c-1.87,6.78 -1.62,16.05 1.83,22.29c2.22,4.03 5.07,6.15 9.35,7.53c-0.13,2.03 -0.21,4.08 -0.43,6.1c3.25,2.81 6.03,4.63 10.58,4.15c4.97,-0.52 6.5,-4.11 10.01,-5.04c-0.03,0.88 -0.29,1.19 -0.72,1.93c0.26,1.39 1.47,2.33 2.42,3.32l-1.9,0.7l-1.22,-1.35c-2.6,-0.54 -6.81,1.77 -9.74,2c-4.35,0.35 -6.68,-1.3 -9.87,-3.9l-1.44,-1.74c-0.57,-6.72 -5.77,-8.07 -8.69,-13.53c-3.74,-6.98 -3.43,-16.56 -1.29,-24z" fill="#133D59" id="svg_9"/>
  <path d="m554.78,382.74c5.06,4.21 10.38,7.87 17.08,8.63l-16.19,1.37c-0.07,-3.34 -0.53,-6.68 -0.89,-10z" fill="#ED706F" id="svg_10"/>
  <path d="m541.76,330.89c8.8,8.24 13.2,50.29 12.25,62.31c-0.53,6.75 -3.13,14.21 -4.61,20.85c-3.9,17.57 -4.67,29.08 -3.76,47.13c0.24,4.68 1.19,10.46 -2.18,14.2c-1.12,0.16 -2.62,0.55 -3.73,0.42c-1.11,-0.13 -1.37,-0.43 -1.98,-1.3c-8.54,-12.17 2.2,-66.17 1.82,-83.46c-0.2,-8.72 -4.6,-17.47 -3.97,-26.04c0.82,-11.43 4.38,-22.79 6.16,-34.11z" fill="#FCFBFB" id="svg_11"/>
  <path d="m421.75,277.94c0.94,-0.03 0.63,-0.19 1.31,0.4c3.31,2.84 7.23,16.97 9.61,21.88c2.04,4.2 4.66,8.35 7.67,11.92c10.88,13.05 23.05,19.79 39.88,21.62c-0.48,6.23 -1.57,12.4 -2.62,18.55c-10.43,-2.06 -20.06,-5.5 -28.76,-11.78c-14.58,-10.53 -24.91,-30.59 -27.13,-48.26c-0.58,-4.59 0.91,-9.28 0.12,-13.88c-0.02,-0.15 -0.06,-0.3 -0.08,-0.45z" fill="#FCFBFB" id="svg_12"/>
  <path d="m528.6,395.39c2.72,-0.73 5.8,-2.03 8.62,-1.61c0.39,0.89 0.45,1.16 0.49,2.08c-1.31,12.68 -2.75,25.4 -3.27,38.13l-5.57,0.03c-1.91,-12.22 -3.78,-26.64 -0.27,-38.63z" fill="#FCFBFB" id="svg_13"/>
  <path d="m425.42,218.43c1.52,-0.01 3.98,0.92 5.08,2.05c0.93,0.95 1.08,1.99 0.99,3.28c-0.39,5.39 -7.64,10.73 -11.47,14.1l-3.43,3.67c-0.06,-4.7 -0.82,-10.29 0.56,-14.81c1.35,-4.45 4.4,-6.32 8.27,-8.29z" fill="#FCFBFB" id="svg_14"/>
  <path d="m397.96,218.54c2.49,-0.16 4.65,0.09 6.78,1.5c2.59,1.71 3.83,4.7 4.35,7.65c0.4,2.3 1.2,10.47 -0.05,12.24l-0.87,-0.93c-2.77,-3.05 -6.03,-5.55 -8.99,-8.41c-2.02,-1.94 -4.8,-4.79 -4.54,-7.84c0.18,-2.14 1.72,-3.1 3.32,-4.21z" fill="#FCFBFB" id="svg_15"/>
  <path d="m408.58,281.16c1.71,-3.38 5.43,-4.55 7.55,-7.83c1.67,1.24 2.97,2.58 4.33,4.15c-0.15,0.25 -0.32,0.49 -0.46,0.74c-2.19,3.92 2.47,11.52 -4.32,13.9c-0.85,0.3 -1.13,0.16 -1.99,0.02c-0.88,-0.74 -1.17,-0.71 -1.42,-1.89l1.07,-0.65c-0.95,-0.81 -0.2,-0.24 -1.35,-0.93c-1.57,-0.94 -2.3,-1.9 -2.91,-3.67l0.29,-0.43c1,0.34 1.98,0.68 3.01,0.93l0.13,-0.73c-1.22,-1.37 -2.49,-2.48 -3.93,-3.61z" fill="#FCFBFB" id="svg_16"/>
  <path d="m528.6,395.39c2.18,-8.44 3.48,-17.04 5.93,-25.42c1.22,6.49 4.48,19.72 3.18,25.89c-0.04,-0.92 -0.1,-1.19 -0.49,-2.08c-2.82,-0.42 -5.9,0.88 -8.62,1.61z" fill="#ED706F" id="svg_17"/>
  <path d="m528.87,434.02l5.57,-0.03c-0.11,6.16 -0.67,12.87 -1.84,18.92q-2.15,-9.39 -3.73,-18.89z" fill="#3AC4B7" id="svg_18"/>
  <path d="m406.44,362.73q0.04,24.01 -0.32,48.02c-0.04,6.32 0.63,12.99 0.24,19.25c-0.07,-1.36 0.17,-3.64 -0.81,-4.53c-7.9,2.18 -18.44,8.33 -25.83,12.29c-44.81,24.02 -77.54,56.63 -102.59,100.85c-7.15,12.62 -14.69,26.76 -18.48,40.78c-16.01,0.08 -32.17,-0.4 -48.16,0.05c0.58,-12.4 10.42,-37.6 15.2,-49.32q1.07,-2.58 2.19,-5.13q1.12,-2.56 2.28,-5.09q1.17,-2.54 2.38,-5.05q1.22,-2.51 2.48,-4.99q1.27,-2.49 2.58,-4.95q1.31,-2.46 2.67,-4.9q1.36,-2.44 2.76,-4.84q1.41,-2.41 2.86,-4.8q1.45,-2.38 2.95,-4.73q1.5,-2.35 3.04,-4.68q1.54,-2.32 3.13,-4.61q1.59,-2.3 3.22,-4.56q1.63,-2.26 3.31,-4.49q1.67,-2.23 3.39,-4.43q1.72,-2.2 3.48,-4.36q1.76,-2.17 3.56,-4.3q1.8,-2.13 3.64,-4.22q1.84,-2.1 3.72,-4.15q1.89,-2.06 3.81,-4.08q1.92,-2.03 3.88,-4.01q1.96,-1.99 3.96,-3.93q2,-1.95 4.03,-3.85q2.04,-1.91 4.11,-3.78q2.07,-1.87 4.18,-3.69q2.1,-1.83 4.25,-3.62q2.14,-1.78 4.32,-3.53q2.17,-1.74 4.38,-3.44q2.21,-1.71 4.45,-3.36q2.25,-1.66 4.52,-3.28q2.28,-1.61 4.58,-3.18q2.3,-1.58 4.64,-3.1q2.33,-1.53 4.7,-3.01c21.36,-13.29 44.14,-23.56 67.3,-33.25z" fill="#ED706F" id="svg_28"/>
  <path d="m547.59,432.17l0.58,-0.13c6.44,-1.4 13.17,-1.99 19.7,-2.88c12.49,-1.71 25.03,-3.38 37.43,-5.69c81.1,-15.09 146.49,-40.89 200.54,-105.28c5.7,12.81 11.41,26.23 15.29,39.69c-7.96,10.49 -17.66,20.04 -27.49,28.8c-52.64,46.92 -121.4,66.85 -189.95,76.24c-18.74,2.57 -37.79,4.5 -56.32,8.38c-1.13,-12.54 -1.87,-26.69 0.22,-39.13z" fill="#3AC4B7" id="svg_29"/>
  <path d="m406.36,445.67c1.1,21.15 -0.04,43.05 -0.26,64.26c-29.94,17.48 -54.08,40.81 -74.09,68.96c-11.59,0.75 -23.52,0.16 -35.14,0.12c3.37,-9.47 8.67,-18.58 14.04,-27.06c17.99,-28.38 43.96,-52.39 72.78,-69.58c7.29,-4.35 14.95,-8.05 22.54,-11.83c-0.04,-8.23 -0.4,-16.65 0.13,-24.87z" fill="#3AC4B7" id="svg_30"/>
  <path d="m350.27,608.13c11.02,-0.03 25.75,-1.49 36.21,1.73c5.74,1.77 11.02,5.33 13.74,10.82c2.78,5.58 2.75,12.71 0.6,18.52c-2.68,7.21 -8.01,11.09 -14.69,14.21c5.83,5.61 9.43,14.11 13.47,21.09q3.88,6.6 8.07,13l-16.79,-0.04c-5.99,-1.12 -14.67,-23.94 -19.4,-29.34c-1.23,-1.41 -2.34,-2.02 -4.24,-2.09c-1.65,1.72 -0.87,27.1 -0.87,31.31c-5.28,-0.01 -10.69,0.24 -15.94,-0.44l-0.16,-78.77z" fill="#395163" id="svg_31"/>
  <path d="m365.99,622c5.39,-0.15 11.55,-0.83 16.44,1.93c1.95,1.1 3.63,2.78 4.11,5.03c0.69,3.28 -0.87,6.74 -2.62,9.41c-5.22,3.9 -11.66,2.91 -17.81,2.78l-0.12,-19.15z" fill="#FCFBFB" id="svg_32"/>
  <path d="m498.49,608.23c10.39,-0.11 22.22,-1.3 32.36,0.9c5.97,1.3 11.58,4.32 14.82,9.67c3.51,5.78 3.82,14.62 1.95,21.08c-2.1,7.21 -7.37,11.13 -13.65,14.53c7.46,10.46 14.03,21.82 20.1,33.12c-6.16,0.08 -12.35,-0.05 -18.51,-0.09c-2.42,-5.03 -15.28,-28.07 -18.65,-30.61c-0.87,-0.66 -1.26,-0.36 -2.3,-0.24c-1.98,2.31 -0.78,25.83 -0.96,30.61c-5.16,0.21 -10.36,0.14 -15.53,0.18c0.25,-10.5 -0.85,-76.59 0.37,-79.15z" fill="#395163" id="svg_33"/>
  <path d="m513.13,621.71c5.37,-0.01 11.15,-0.49 15.88,2.57c2.16,1.4 3.84,3.39 4.29,5.97c0.55,3.15 -1.76,7.15 -3.68,9.42c-5,3.56 -10.48,3.1 -16.31,3.16q-0.25,-10.56 -0.18,-21.12z" fill="#FCFBFB" id="svg_34"/>
  <path d="m562.95,607.9c13.32,-0.19 34.66,-2.83 45.32,6.45c4.98,4.32 7.33,10.48 7.68,16.95c0.35,6.59 -1.31,12.84 -5.89,17.76c-6.6,7.09 -14.7,8.03 -23.79,8.41l-7.78,0.01l0.01,29.94l-15.58,0.06c-0.99,-26.46 0.15,-53.1 0.03,-79.58z" fill="#395163" id="svg_35"/>
  <path d="m578.7,622.03c5.38,-0.05 13.47,-0.93 17.89,2.61c1.86,1.49 2.75,3.56 2.95,5.9c0.38,4.19 -0.68,6.92 -3.28,10.14c-5.45,3.35 -11.61,2.81 -17.74,2.79l0.18,-21.44z" fill="#FCFBFB" id="svg_36"/>
  <path d="m465.27,607.2c1.33,0.01 2.67,0.02 3.99,0.11c6.83,0.49 11.88,3.11 16.31,8.22c-2.19,3.86 -5,7.4 -7.61,10.98c-2.49,-2.95 -4.89,-5.17 -8.9,-5.55c-3.43,-0.32 -6.82,0.36 -9.42,2.72c-1.57,1.44 -3.24,3.41 -3.04,5.68c0.56,6.69 19.27,12.45 25.14,18.07c4.63,4.43 7.2,10.21 7.28,16.63c0.09,6.72 -1.75,12.6 -6.69,17.31c-6.99,6.65 -15.33,7.43 -24.46,7.12q-2.72,-0.33 -5.36,-1.05q-2.64,-0.72 -5.15,-1.82c-2.66,-1.18 -6.87,-3.38 -7.74,-6.45c-1.14,-4 3.48,-9.91 5.5,-13.3q1.5,1.49 3.04,2.94c4.27,4 8.93,6.1 14.86,5.77c2.87,-0.16 5.27,-1.29 7.14,-3.48c1.55,-1.8 2.74,-4.01 2.44,-6.45c-1.04,-8.36 -16.41,-11.49 -22.32,-16.32c-4.95,-4.03 -8.5,-9.4 -9.07,-15.86c-0.54,-6.06 1.5,-12.92 5.51,-17.54c4.89,-5.62 11.45,-7.25 18.55,-7.73z" fill="#395163" id="svg_37"/>
  <path d="m657.82,607.2c0.47,-0.04 0.94,-0.08 1.42,-0.09c9.29,-0.24 17.37,3.16 24.1,9.45c-2.86,4.4 -6.73,8.07 -10.68,11.47c-4.07,-3.6 -8.56,-6.36 -14.24,-5.93c-5.06,0.39 -9.41,3.11 -12.68,6.9c-5.18,5.98 -7.18,14 -6.52,21.77c0.61,7.16 3.41,14.32 9.17,18.9c3.43,2.73 7.95,4.68 12.39,4.13c5.86,-0.71 9.92,-4.58 13.32,-9.05c1.16,1.18 2.21,2.47 3.29,3.72l6.9,8.57c-6.03,6.24 -12.77,10.3 -21.51,11.24c-9.15,0.98 -18.06,-1.4 -25.21,-7.26c-8.44,-6.91 -13.2,-18.04 -14.15,-28.76c-1.03,-11.71 2.07,-23.56 9.76,-32.61c6.56,-7.72 14.65,-11.57 24.64,-12.45z" fill="#395163" id="svg_38"/>
  <path d="m494.31,280.96c1.4,-3.94 3.68,-6.84 5.59,-10.45c3.66,-6.93 2.76,-13.66 11.11,-17.6c6.77,-3.2 16.97,-3.2 23.91,-0.51c8.83,3.43 14.69,12.13 18.19,20.57c3.71,8.92 5.81,19.96 1.85,29.14c-2.8,6.52 -8.2,11.34 -14.81,13.8c-3.78,1.41 -7.39,1.83 -11.4,1.69c-2.76,-3.05 -5.49,-5.81 -5.17,-10.24c0.54,-7.45 13.5,-15.91 7.83,-22.72c-3.59,-4.29 -10,-4.51 -13.74,-8.49c-2.67,-2.83 -5.9,-11.63 -7.69,-12.85c-4.41,1.55 -11.24,11.8 -13.31,16.08q-0.73,1.52 -1.25,3.12l-1.11,-1.54z" fill="#395163" id="svg_39"/>
  <path d="m414.53,608.08c5.23,-0.02 10.43,-0.06 15.65,0.26c-0.42,8.87 0.24,17.86 0.29,26.75l-0.07,52.45l-15.95,-0.06l0.08,-79.4z" fill="#395163" id="svg_41"/>
  <path d="m320.46,607.98q7.8,-0.06 15.6,0.13l-0.28,78.9l-15.53,-0.01q-0.27,-39.51 0.21,-79.02z" fill="#395163" id="svg_42"/>
  <path d="m411.42,197.38c0.57,0.01 1.03,0.01 1.6,0.1c1.73,0.28 3.06,1.27 3.93,2.75c0.87,1.49 1,3.07 0.53,4.71c-0.55,1.93 -1.63,2.76 -3.3,3.75c-1.77,-0.23 -3.43,-0.47 -4.76,-1.76c-1.01,-0.98 -1.53,-2.27 -1.47,-3.68c0.12,-2.62 1.6,-4.21 3.47,-5.87z" fill="#395163" id="svg_68"/>
 </g>
</svg>