<?xml version="1.0"?>
<svg width="1013" height="1013" xmlns="http://www.w3.org/2000/svg" xmlns:svg="http://www.w3.org/2000/svg">


 <g class="layer">
  <title>Layer 1</title>
  <path d="m701.79,168.33c0.43,4.82 0.67,9.53 0.28,14.37q-0.13,1.71 -0.35,3.4q-0.22,1.7 -0.52,3.38q-0.31,1.68 -0.7,3.35q-0.4,1.66 -0.88,3.3q-0.48,1.65 -1.05,3.26q-0.57,1.61 -1.21,3.19q-0.66,1.59 -1.39,3.13q-0.73,1.55 -1.55,3.05c-11.9,22.02 -38.6,42.32 -57.67,58.52c32.12,-9.69 56.26,-31.38 78.01,-55.89c1.08,2.65 1.96,5.42 2.93,8.11c-3.05,9.57 -9.06,18.32 -14.92,26.39c-14.14,19.46 -30.76,35.13 -51.64,47.15c-7.75,4.46 -15.87,8.22 -23.59,12.75c8.51,-1.76 17.15,-2.96 25.58,-5.12c21.15,-5.43 36.55,-18.3 51.79,-33.18c-4.42,14.37 -11.48,31.13 -24.43,39.73c-3.92,2.6 -8.38,4.28 -12.43,6.67l-0.38,0.24c8.87,-2.27 17.36,-4.91 25.92,-8.15c-2.65,10.7 -8.12,19.83 -17.15,26.29c-16.3,11.65 -40.04,12.29 -59.2,9.15c9.5,6.31 20.66,10.81 31.98,12.26c4.53,0.58 16.45,-2.08 19.45,0.28c-0.04,2.38 -0.49,4.45 -1.63,6.56c-2.91,5.42 -9.1,9.43 -14.92,11.01c-17.05,4.61 -42.17,-7.47 -56.92,-15.94c12.01,14.2 21.1,21.65 38.88,27.65c-8.43,6.09 -18.06,9.87 -28.59,8.23c-17.66,-2.75 -30.85,-24.77 -40.6,-38.21c3.8,18.85 12.13,35.31 27.61,47.37q-1.15,0.54 -2.32,1.06c-6.37,2.77 -12.65,3.19 -19.17,0.58c-16.93,-6.81 -26.49,-29.23 -33,-45c-0.82,24 6.88,35.25 20.65,53.99c-4.45,0.33 -8.4,0.47 -12.65,-1.26c-9.77,-3.99 -14.82,-13.86 -18.5,-23.08c-0.13,10.68 -0.47,21.43 0.23,32.09c2.06,31.31 10.34,64.56 22.56,93.43c10.99,25.94 28.55,47.76 50.6,65.13c5.64,4.44 12.26,9.5 18.96,12.21c-11.02,0.75 -21.92,1.28 -32.98,1.13c-8.37,-6.41 -12.63,-14.5 -17.02,-23.8l-0.5,0.19c0.93,0.51 1.61,4.44 1.97,5.59c2.01,6.44 5.52,12.45 9.05,18.15c-5.27,0.27 -10.54,0.3 -15.81,0.35c-4.6,-5.61 -7.74,-11.99 -10.96,-18.44c1.41,6.16 3.1,12.15 4.95,18.2c-5.68,-0.05 -27.01,0.97 -31.15,-0.3c-1.77,-0.55 -3.48,-2.69 -4.5,-4.15c-2.7,-3.9 -2.99,-15.12 -4.34,-16.22c-1.81,4.73 0.97,16.08 2.27,21.03l-30.19,0.04c-3.06,-5.78 -4.59,-11.42 -4.98,-17.95c-0.14,-2.48 -0.01,-5.07 -0.76,-7.46c-1.34,5.45 -1.1,20 -0.37,25.78q-15.15,0.2 -30.3,-0.05c1.12,-1.86 2.23,-3.72 3.22,-5.65c19.68,-38.3 19.45,-103.72 20.99,-146.73c0.43,-12.1 2.57,-26.96 0.9,-38.78c-1.11,-7.86 -6.32,-13.67 -8.45,-21.07c-3.95,-13.77 6.93,-26.01 13.06,-37.27l0.21,-0.4c-3.66,-1.09 -7.29,-2.21 -10.84,-3.62c-18.28,-7.27 -36.36,-20.36 -46.88,-37.21c-3.39,-5.43 -5.81,-11.32 -8.34,-17.18c-0.71,8.2 -0.5,16.58 -0.5,24.81l0.11,35.42c8.64,-4.09 17,-8.73 25.66,-12.76c8.55,5.33 16.04,12.05 24.79,17.24c-6.29,10.02 -11.89,19.09 -9.17,31.41c1.14,5.22 3.59,9.94 6.2,14.56c-15.77,7.31 -32.01,13.62 -47.68,21.19c-1.01,17.62 -0.41,35.83 -0.08,53.48c-0.07,8.6 -1.01,25.58 0.3,33.4c0.48,10.9 0.17,21.9 0.18,32.81l0.04,58.65l-12.13,-0.15l-0.25,-111.25c0.35,-71.03 1.35,-142.2 0.16,-213.22c-1.86,-1.04 -4.98,-2.81 -6.03,-4.72c-0.68,-1.27 -0.61,-1.58 -0.23,-2.86c0.91,-0.76 1.58,-0.75 2.72,-0.83c1.03,-0.08 1.38,0.01 2.25,-0.57c-0.91,-2.44 -1.77,-4.83 -2.46,-7.34c0.49,-1.55 2.37,-0.96 3.65,-2.27c1.48,-8.9 -10.97,-17.27 -14.19,-24.93c-4.62,-10.99 7.7,-12.77 13.49,-18.79c3.23,-3.36 4.65,-7.35 6.38,-11.59c4.18,17.1 14.05,13.51 18.99,21.7c3.88,6.44 -7.17,18.81 -10.37,24.43c-1.7,2.98 -2.75,5.86 -3.61,9.17c1.88,0.7 3.79,1.18 4.69,3.06c-0.54,1.82 -0.9,3.45 -1.02,5.35c1.04,0.37 2.06,0.68 2.94,1.36c0.63,0.49 0.49,0.81 0.59,1.54c-1.13,2.76 -3.74,4.57 -6.04,6.31c0.88,4.1 2.81,7.99 4.81,11.65c12.95,23.67 37.59,43.26 63.46,50.91c4.41,-4.84 8.73,-8.27 14.63,-11.16c-1.23,3.63 -3.95,9.5 -2.18,13.33c0.68,1.47 1.66,2.4 3.24,2.87c5.01,1.49 11.62,-2.47 15.95,-4.67q-1.26,-0.63 -2.48,-1.33c-10.31,-5.97 -13.23,-18.85 -16.08,-29.5c-2.33,0.6 -4.03,1.26 -8.26,1.34c-4.23,0.08 -3.12,-8.53 -6.25,-13.06l-0.39,-0.55c3.93,-9.97 2.23,-21.17 10.2,-27.74c5.44,-4.49 12.47,-6.1 19.39,-5.23c19.49,2.45 14.83,18.35 23.09,28.84c3.28,4.17 7.67,5.36 12.68,6.04c-2.67,2.55 -5.22,4.43 -8.54,6.04c-3.68,-0.45 -7.2,-0.96 -10.77,-2.02c2.97,2.58 5.87,5.03 9.18,7.15c2.23,0.15 4.44,0.11 6.67,0.09c-1.88,6.44 -3.81,10.04 -9.59,13.49c-2.29,-0.13 -4.6,-0.46 -6.89,-0.72c0.15,0.12 0.3,0.25 0.45,0.37c1.11,0.87 2.49,1.74 3.3,2.9c0.63,0.91 0.63,1.19 0.46,2.21c-0.5,0.36 -0.55,0.45 -1.24,0.65c-3.7,1.07 -9.33,-1.89 -12.21,-3.95c1.98,3.84 4.08,7.62 6.07,11.45c11.44,-5.34 22.87,-14.89 30.95,-24.52c11.48,-13.67 18.64,-30.52 17.1,-48.49c1.48,1.69 2.94,3.39 4.14,5.31c4.34,6.97 3.37,13.67 1.69,21.23c4.77,-5.81 9.1,-12.11 13.58,-18.15c5.88,-7.95 11.92,-15.86 17.49,-24.02c4.06,-5.94 6.53,-14.02 11.86,-18.9c1.24,-0.33 1.27,-0.32 2.46,0.17c0.79,0.92 1.35,1.7 1.76,2.86c3.23,9.02 -4.18,21.48 -7.89,29.51c7.19,-5.23 14.66,-10.07 21.83,-15.34c25.85,-19.01 46.63,-39.97 60.63,-69.3zm-301.46,52.24c2.17,9.39 7.04,17.52 10.73,26.33c3.93,-8.32 8.33,-17.31 10.66,-26.22c-2.6,-4.87 -5.97,-8.83 -9.97,-12.63c-4.4,3.71 -8.36,7.6 -11.42,12.52z" fill="#3B3F48" id="svg_5" transform="scale(0.988936 0.988936)"/>
  <path d="m443.38,331.43c8.55,5.33 16.04,12.05 24.79,17.24c-6.29,10.02 -11.89,19.09 -9.17,31.41c1.14,5.22 3.59,9.94 6.2,14.56c-15.77,7.31 -32.01,13.62 -47.68,21.19c0.7,-10.22 0.39,-20.6 0.4,-30.85q0.14,-20.4 -0.2,-40.79c8.64,-4.09 17,-8.73 25.66,-12.76z" fill="#E7756D" id="svg_6" transform="scale(0.988936 0.988936)"/>
  <path d="m815.33,325.91c11.81,11.23 20.71,27.05 29.15,40.87c-78.39,71.22 -174.22,93.58 -276.36,106.64c-5.96,0.48 -11.95,1.49 -17.88,2.25c-3.55,-12.29 -6.21,-24.84 -8.86,-37.35c8.74,-2.13 17.78,-3.06 26.69,-4.3q16,-2.14 31.81,-5.43c61.33,-12.96 122.55,-33.82 174.32,-69.92c14.37,-10.02 27.7,-21.51 41.13,-32.76z" fill="#458A86" id="svg_7" transform="scale(0.988936 0.988936)"/>
  <path d="m396.65,353.93l0.37,0.15c1.63,3.12 0.5,63.39 0.48,71.52q-5.73,3.03 -11.37,6.24q-5.63,3.21 -11.16,6.59q-5.54,3.38 -10.97,6.92q-5.42,3.55 -10.74,7.26q-5.32,3.71 -10.51,7.58q-5.2,3.87 -10.28,7.9q-5.08,4.03 -10.04,8.21q-4.95,4.19 -9.77,8.52q-4.83,4.33 -9.51,8.81q-4.69,4.48 -9.24,9.1q-4.55,4.62 -8.96,9.37q-4.4,4.76 -8.66,9.65q-4.25,4.89 -8.36,9.9q-4.11,5.02 -8.06,10.16q-3.95,5.14 -7.74,10.4q-3.79,5.26 -7.42,10.63q-6.47,-6.15 -13.06,-12.17l-14.81,-13.5c5.32,-12.01 13.33,-23.14 20.54,-34.09c41.6,-63.26 94.44,-110.57 159.27,-149.15z" fill="#E7756D" id="svg_8" transform="scale(0.988936 0.988936)"/>
  <path d="m729.93,252.45c14.4,1.44 41.25,25.67 51.52,36.41c-5.47,5.01 -11.86,9.29 -17.91,13.56q-21.3,15.14 -43.85,28.37c-11.27,6.74 -22.91,11.71 -35.07,16.63c6.04,-9.18 12.58,-19.41 16.28,-29.77c4.62,-12.96 6.49,-26.78 10.76,-39.87c3.47,-10.62 7.91,-20.06 18.27,-25.33z" fill="#E7756D" id="svg_9" transform="scale(0.988936 0.988936)"/>
  <path d="m395.75,478.88l0.84,0.17c1.63,3.95 0.58,26.89 0.72,32.73c-27.4,14.46 -53.31,29.83 -76.69,50.32c-7.08,6.21 -13.52,13.11 -20.34,19.59c-7.61,0.45 -15.28,0.28 -22.9,0.28l-1.26,-0.2l-0.15,-0.95c2.63,-6.21 9.48,-12.58 13.93,-17.79c30,-35.08 64.65,-63.18 105.85,-84.15z" fill="#458A86" id="svg_10" transform="scale(0.988936 0.988936)"/>
  <path d="m559.53,611.67c5.4,-0.26 10.78,-0.11 16.04,1.28c5.64,1.49 10.69,4.56 13.61,9.75q0.43,0.76 0.77,1.57q0.36,0.81 0.62,1.65q0.27,0.84 0.45,1.7q0.19,0.86 0.29,1.73q0.1,0.88 0.11,1.76q0.01,0.88 -0.07,1.76q-0.08,0.87 -0.25,1.74q-0.16,0.86 -0.41,1.71c-1.62,5.59 -5.74,9.66 -10.7,12.43c9.07,8.83 11.16,20.74 14.3,32.54l-14.06,-0.21c-1.61,-4.53 -2.81,-9.27 -4.22,-13.86c-0.95,-3.16 -2.05,-6.47 -4.23,-9.02c-3.55,-4.14 -8.76,-4.34 -13.81,-4.76l0.02,27.75q-6.99,-0.14 -13.98,0.01c-0.57,-7.47 -0.25,-15.22 -0.33,-22.73l-0.55,-44.25q8.11,-1.84 16.41,-2.55zm-1.22,31.57c5.61,-0.4 10.66,-0.35 15.61,-3.37c2.05,-2.61 4.16,-5.55 3.6,-9.08c-0.36,-2.27 -2.03,-4.09 -3.91,-5.31c-4.56,-2.95 -10.38,-3.07 -15.64,-3c0.06,6.89 -0.1,13.87 0.35,20.76z" fill="#3B3F48" id="svg_11"/>
  <path d="m626.49,619.53c8.99,-0.22 18.9,0.59 25.74,7.15q0.39,0.37 0.75,0.76q0.36,0.39 0.71,0.8q0.34,0.41 0.66,0.83q0.33,0.42 0.63,0.86q0.3,0.44 0.58,0.9q0.27,0.45 0.52,0.92q0.26,0.47 0.49,0.95q0.23,0.48 0.43,0.97q0.2,0.49 0.38,1q0.18,0.5 0.33,1.01q0.15,0.51 0.28,1.03q0.13,0.51 0.22,1.04q0.1,0.52 0.18,1.05q0.07,0.53 0.11,1.06q0.05,0.53 0.06,1.06q0.02,0.53 0.01,1.06q0,0.51 -0.03,1.02q-0.03,0.5 -0.09,1.01q-0.05,0.5 -0.13,1q-0.08,0.5 -0.18,1q-0.11,0.49 -0.23,0.98q-0.13,0.49 -0.29,0.98q-0.15,0.48 -0.32,0.96q-0.18,0.47 -0.38,0.94q-0.2,0.46 -0.42,0.92q-0.22,0.45 -0.47,0.9q-0.24,0.44 -0.51,0.87q-0.27,0.43 -0.56,0.85q-0.28,0.42 -0.59,0.82q-0.31,0.4 -0.64,0.79q-0.32,0.38 -0.67,0.75q-0.35,0.37 -0.71,0.73c-8.22,7.89 -18.67,7.05 -29.16,6.76l-0.11,6.62l0.04,19.95c-4.65,-0.08 -9.3,-0.02 -13.94,-0.02q-0.27,-34.09 0.16,-68.17c5.71,-0.82 11.4,-1.64 17.15,-2.11zm-3.46,33.82c6.78,0.08 11.64,0.23 17.47,-3.69c2.12,-2.79 3.94,-5.71 3.55,-9.37c-0.29,-2.7 -1.98,-4.85 -4.14,-6.37c-4.98,-3.5 -10.93,-3.43 -16.72,-3.18c-0.02,7.51 0.15,15.1 -0.16,22.61z" fill="#3B3F48" id="svg_12" transform="translate(1 0) scale(0.988936 0.988936)"/>
  <path d="m699.06,618.47c7.65,-0.73 14.76,1.02 21.98,3.38c-2.23,3.26 -3.99,6.96 -5.88,10.44c-4.26,-1.97 -8.78,-3.12 -13.5,-2.64q-0.59,0.05 -1.17,0.14q-0.58,0.09 -1.16,0.21q-0.57,0.12 -1.14,0.26q-0.57,0.15 -1.13,0.32q-0.57,0.18 -1.12,0.38q-0.55,0.21 -1.09,0.44q-0.54,0.23 -1.07,0.49q-0.53,0.26 -1.04,0.54q-0.52,0.29 -1.02,0.6q-0.5,0.31 -0.98,0.65q-0.48,0.34 -0.95,0.7q-0.46,0.36 -0.91,0.74q-0.44,0.38 -0.87,0.79q-0.43,0.41 -0.83,0.83q-0.41,0.43 -0.79,0.88q-0.38,0.44 -0.74,0.91c-4.66,6.05 -6.36,14.04 -5.3,21.53c0.84,5.9 3.66,11.37 8.57,14.88c7.93,5.68 16.83,3.98 25.74,2.63l2.53,5.66l2.12,4.71c-2.99,0.91 -5.97,1.83 -9.05,2.38c-10.46,1.88 -22.09,1.01 -30.97,-5.31c-7.73,-5.51 -12.58,-14.08 -14.02,-23.39c-1.59,-10.28 0.67,-20.14 6.92,-28.51c6.57,-8.8 16.21,-13.08 26.87,-14.64z" fill="#3B3F48" id="svg_13" transform="translate(1 0) scale(0.988936 0.988936)"/>
  <path d="m499.6,612.66c6.87,-0.4 12.96,0.73 19.55,2.67c-0.83,3.89 -2.1,7.75 -3.17,11.58c-3.17,-1.18 -6.56,-2.37 -9.89,-2.99c-4.56,-0.82 -9.31,0.63 -12.98,3.43c-1.34,1.02 -1.77,1.88 -2.05,3.51c2.22,7.93 17.1,11.34 23.37,16c4.23,3.14 7.23,7.65 7.79,12.96c0.54,5.05 -1.37,10.56 -4.66,14.41c-4.84,5.65 -12.55,7.62 -19.67,8.11c-7.24,-0.07 -12.5,-1.09 -19.17,-3.9l2,-11.47c4.49,2.23 10.22,5.37 15.36,4.91c3.29,-0.29 7.96,-1.58 10.07,-4.32c1.23,-1.6 1.88,-3.94 1.49,-5.93c-1.33,-6.86 -15.82,-10.78 -21.23,-14.6c-4.02,-2.85 -7.65,-6.84 -8.36,-11.9c-0.65,-4.68 1.18,-10.23 4.04,-13.91c4.29,-5.53 10.84,-7.7 17.5,-8.56z" fill="#3B3F48" id="svg_14"/>
  <path d="m417.44,469.31c16.38,-5.13 31.65,-12.55 48.61,-15.95c-1.28,11.41 -1.57,23.37 -1.64,34.86c-6.72,2.07 -13.6,3.61 -20.37,5.56q-13.34,3.89 -26.3,8.93c-1.31,-7.82 -0.37,-24.8 -0.3,-33.4z" fill="#458A86" id="svg_15" transform="scale(0.988936 0.988936)"/>
  <path d="m359.54,613.41c4.67,0.37 9.42,0.14 14.1,0.1c-1.06,9.54 -0.56,19.83 -0.55,29.43c0,12.97 -0.28,26.03 0.24,38.98c-4.62,-0.19 -9.23,-0.17 -13.84,0.24c0.63,-6.99 0.41,-14.13 0.43,-21.15c0.03,-15.87 -0.48,-31.73 -0.38,-47.6z" fill="#3B3F48" id="svg_18"/>
  <path d="m290.73,658.92c2.7,-0.65 6.96,-0.02 9.6,0.75c8.78,2.56 15.82,9.51 19.99,17.44c-2.65,1.31 -5.27,2.4 -8.06,3.37c-6.23,1.46 -13.48,1.29 -19.14,-1.9c-7.11,-4 -9.31,-10.87 -11.36,-18.22c2.96,-0.76 5.95,-1.07 8.97,-1.44z" fill="#3B3F48" id="svg_36"/>
  <path d="m312.83,617.62c3.63,-6.5 8.11,-10.66 15.48,-12.69c5.56,-1.53 10.89,-1.3 16.52,-0.36c-2.64,8.62 -5.4,17.6 -13.88,22.32c-4.11,2.29 -9.32,2.75 -13.82,1.35c-0.95,-0.3 -1.86,-0.73 -2.76,-1.15c-1.44,1.26 -2.86,2.58 -4.37,3.76l-1.63,-0.58q2.45,-2.04 4.94,-4.03c-0.37,-2.91 -0.5,-5.68 -0.48,-8.62z" fill="#3B3F48" id="svg_37"/>
  <path d="m292.86,598.97c2.25,1.78 4.11,3.93 5.75,6.27c3.44,4.89 6.33,11.82 5.16,17.83c-1.13,5.83 -5.2,10.06 -9.95,13.27c-1.57,-0.36 -2.6,-1.11 -3.85,-2.12c-3.84,-3.09 -5.65,-7.17 -6.09,-12.06c-0.81,-8.93 3.5,-16.59 8.98,-23.19z" fill="#3B3F48" id="svg_39"/>
  <path d="m792.16,451.17c3.81,-0.19 7.65,0.21 11.03,2.13c5.47,3.1 7.54,8.53 9.22,14.21c0.74,-0.95 1.52,-1.89 2.37,-2.74c3.74,-3.78 9.29,-5.97 14.59,-5.92c6.48,0.06 10.95,3.61 15.22,8.04c-4.04,-0.46 -8.04,-0.98 -12.11,-0.92c-0.08,0.02 -0.15,0.03 -0.23,0.05c-10.83,1.91 -14.57,9.33 -21.94,16.33c-2.85,-5.72 -3.67,-12.42 -7.11,-17.83c-4.2,-6.61 -12.02,-5.45 -16.59,-10.82l0.43,-0.78c1.68,-0.87 3.28,-1.3 5.12,-1.75z" fill="#3B3F48" id="svg_42" transform="scale(0.988936 0.988936)"/>
  <path d="m770.12,501.66c5.21,-0.44 9.41,1.02 14.02,3.18c-4.34,1.38 -9.03,2.28 -13.02,4.54c-9.21,5.24 -8.35,17.62 -13.12,20.18c-3.14,-0.75 -10.17,-10.06 -14.51,-12.73l-0.62,-0.37c-6.17,-2.34 -12.65,-1.39 -18.98,-0.36c1.02,-1.07 2,-2.17 3.04,-3.22c3.41,-3.4 8.49,-5.39 13.29,-5.26c6.48,0.17 11.46,3.73 15.71,8.28c0.7,-1.85 1.39,-3.74 2.35,-5.47c2.63,-4.72 6.69,-7.41 11.84,-8.77z" fill="#3B3F48" id="svg_43" transform="scale(0.988936 0.988936)"/>
  <path d="m312.14,640.42q0.94,-0.1 1.89,-0.13q0.94,-0.03 1.89,0.01q0.94,0.04 1.88,0.14q0.94,0.1 1.87,0.27q0.93,0.17 1.85,0.41q0.91,0.23 1.81,0.53q0.9,0.3 1.77,0.66q0.87,0.37 1.72,0.79c3.3,1.67 8.85,5.29 9.71,9.06c0.3,1.3 0.22,2.41 -0.65,3.47c-3.11,3.81 -11.88,4.1 -16.42,4.15c-2.35,-0.09 -4.36,-0.28 -6.53,-1.25c-6.66,-2.97 -9.41,-9.63 -11.9,-15.98c1.68,1.33 4.13,3.66 6.39,3.73c-1.12,-1.71 -3.4,-2.82 -5.1,-3.91c3.3,-1.23 6.34,-1.74 9.82,-1.95z" fill="#3B3F48" id="svg_44"/>
  <path d="m835.74,539.63q1.06,-0.08 2.11,-0.1c2.68,-0.02 6.51,0.65 8.49,2.57c0.03,0.39 0.24,0.81 0.09,1.17c-0.38,0.92 -10.94,3.89 -12.58,5.14c-5.4,4.12 -6.84,13.9 -9.93,19.83c-5.45,-4.37 -8.51,-10.58 -14.53,-14.44c-5.93,-1.82 -12.14,-0.97 -18.17,-0.01q0.41,-0.48 0.83,-0.95c3.65,-4.05 8.1,-7.37 13.75,-7.56c6.62,-0.21 11.26,3.29 15.84,7.55q0.7,-1.66 1.49,-3.28c2.74,-5.53 7.02,-7.96 12.61,-9.92z" fill="#3B3F48" id="svg_45" transform="scale(0.988936 0.988936)"/>
  <path d="m266.26,619.36c1.25,0.5 2.02,1.35 2.98,2.25c5.27,4.98 10.25,10.86 10.25,18.57c-0.01,5.06 -2.1,8.95 -5.69,12.39c-0.06,0 -0.13,0 -0.2,0c-1.5,0.02 -3.01,0.11 -4.44,-0.42c-3.65,-1.38 -6.26,-3.81 -7.67,-7.45c-3.5,-9.04 1.06,-17.25 4.77,-25.34z" fill="#3B3F48" id="svg_46"/>
  <path d="m322.27,630.77c-14.51,12.96 -28.52,25.54 -39.35,41.88c-3.19,4.81 -6.39,9.9 -8.77,15.17c-1.6,3.55 -2.74,7.41 -4.58,10.83c-0.61,1.12 -1.08,2.16 -2.23,2.81l-0.49,-0.86c-0.2,-3.94 0.98,-8.6 3,-12c2.76,-4.66 4.68,-9.77 7.49,-14.46c11.05,-18.41 26.12,-31.51 43.3,-43.95l1.63,0.58z" fill="#3B3F48" id="svg_47" transform="translate(-1 0) scale(0.988936 0.988936)"/>
  <path d="m858.68,509.55c1.45,-2.26 2.96,-4.69 5.26,-6.17c3.55,-2.27 7.15,-1.2 10.91,-0.25c-3.17,1.42 -6.28,2.81 -9.27,4.56c-2.79,3.86 -4.44,8.67 -6.29,13.03c-1.84,-2.38 -2.81,-5.1 -4.38,-7.63c-3.29,-5.33 -5.8,-4.79 -11.26,-6.44c-1.14,-0.34 -1.9,-0.54 -2.45,-1.64c0.92,-1.35 1.7,-2.05 3.07,-2.94c0.91,-0.03 1.83,-0.07 2.74,-0.02c5.37,0.32 8.29,3.79 11.67,7.5z" fill="#3B3F48" id="svg_48" transform="scale(0.988936 0.988936)"/>
  <path d="m906.72,549.54c0.45,0.05 0.57,0.05 1.08,0.15c1.22,0.23 1.94,0.21 2.63,1.28c-0.77,1.25 -2.03,1.93 -3.2,2.75c-5.9,4.17 -5.63,6.66 -7.54,13.29c-3.59,-3.39 -5.88,-7.83 -10.5,-10c-2.06,0.06 -5.19,0.56 -7.07,-0.23c0.26,-1.19 0.94,-2.25 1.81,-3.1c1.12,-1.11 2.66,-1.55 4.21,-1.41c4.22,0.38 7.14,3.51 9.71,6.52c2.31,-4.7 3.92,-7.03 8.87,-9.25z" fill="#3B3F48" id="svg_49" transform="scale(0.988936 0.988936)"/>
  <path d="m843.03,411.64c2.42,-0.27 4.8,-0.39 7.1,0.57c4,1.68 5.47,5.74 7.05,9.43c1.61,-1.9 3.22,-3.67 5.67,-4.45c2.32,-0.74 5.7,-0.78 7.86,0.48c1.04,0.61 1.14,0.78 1.47,1.87c-1.43,0.99 -2.58,0.65 -4.29,0.63c-0.14,0 -0.27,0 -0.4,0.01c-5.34,0.42 -8.67,5 -11.77,8.82c-1.85,-3.83 -3.25,-7.94 -4.97,-11.85c-2.23,-1.07 -6.93,-2.35 -8.12,-4.4l0.4,-1.11z" fill="#3B3F48" id="svg_50" transform="scale(0.988936 0.988936)"/>
  <path d="m832.19,587.17c1.28,0.07 2.23,0.18 3.46,0.6l0.34,0.81c-1.14,2.05 -4.59,3.82 -6.49,5.35c-0.68,3.22 -1.41,6.39 -2.28,9.55c-3.29,-3.77 -5.42,-8.63 -10.05,-10.91c-3.81,-0.61 -6.82,0.27 -10.45,1.29c2.64,-1.76 5.79,-4.29 9.08,-4.44c3.91,-0.17 6.61,2.86 9.19,5.35c2.14,-3.52 3.42,-5.53 7.2,-7.6z" fill="#3B3F48" id="svg_52" transform="translate(0.555556 0) scale(0.988936 0.988936)"/>
  <path d="m767.6,574.42c1.44,0.02 3.17,0.26 4.51,0.81c2.57,1.07 3.58,3.48 4.66,5.86c2.21,-1.82 4.3,-4 7.41,-3.58c1.21,0.16 2.17,0.69 2.89,1.66c-0.61,1.19 -3.83,1.68 -5.24,2.29l-0.42,0.18c-2.34,2.42 -4.13,5.56 -5.98,8.37c-0.43,-2.84 -1.11,-5.79 -2.47,-8.34c-1.9,-3.56 -4.25,-4.23 -7.88,-5.31c0.65,-1.08 1.45,-1.33 2.52,-1.94z" fill="#3B3F48" id="svg_53" transform="scale(0.988936 0.988936)"/>
  <path d="m849.47,576.8c1.09,0.07 2.36,0.15 3.41,0.5c1.56,0.52 2.3,1.59 3.06,2.97c0.39,0.71 0.77,1.59 1.3,2.2c2.25,2.56 6.07,-1.94 9.29,-1.6c1.4,0.15 1.69,0.7 2.44,1.73l-0.22,0.75c-1.4,0.69 -2.83,1.03 -4.34,1.42c-2.28,2.15 -4.03,4.68 -5.87,7.21c-1.56,-3.92 -2.74,-7.39 -6.05,-10.23c-1.27,-1.09 -2.86,-2.08 -3.8,-3.46l0.78,-1.49z" fill="#3B3F48" id="svg_54" transform="scale(0.988936 0.988936)"/>
  <path d="m719.34,550.1c0.68,0.15 1.36,0.3 2.03,0.5c3.52,1.08 4.95,4.61 6.45,7.64c1.38,-1.4 2.8,-3.06 4.66,-3.81c2.21,-0.9 4.82,-0.21 6.91,0.71l-0.04,0.44c-1.87,0.33 -3.58,0.7 -5.35,1.4l-0.45,0.18c-2.58,2.21 -4.32,5.04 -6.11,7.88c-4.5,-7.58 -2.32,-9.12 -11.02,-13.5c0.91,-1.08 1.61,-1.05 2.92,-1.44z" fill="#3B3F48" id="svg_55" transform="scale(0.988936 0.988936)"/>
  <path d="m894.21,501.38c0.84,0.04 1.71,0.07 2.54,0.25c3.26,0.72 4.9,3.56 6.61,6.13c0.08,-0.06 0.16,-0.11 0.24,-0.16c2.53,-1.81 3.72,-2.39 6.82,-2.23l0.46,0.58c-0.6,1.36 -1.81,1.82 -3.05,2.5c-1.92,1.88 -3.6,4.06 -5.35,6.1c-0.25,-0.56 -0.53,-1.13 -0.75,-1.71c-1.86,-4.72 -7,-9.49 -7.52,-11.46z" fill="#3B3F48" id="svg_56" transform="scale(0.988936 0.988936)"/>
  <path d="m867.47,458.51c1.69,0.19 2.93,0.61 4.36,1.59c0.48,1.01 0.59,1.3 1.52,1.98c3.24,0.14 6.27,-0.92 9.4,-1.65c-1.75,1.57 -3.97,2.73 -5.97,3.97c-1.5,1.9 -2.54,3.91 -3.65,6.04c-1.13,-3.8 -2.07,-7.57 -5.08,-10.36c-0.23,-0.22 -0.48,-0.44 -0.72,-0.66l0.14,-0.91z" fill="#3B3F48" id="svg_57" transform="scale(0.988936 0.988936)"/>
  <path d="m404.02,611.6c5.4,-0.26 10.78,-0.11 16.04,1.28c5.64,1.49 10.69,4.56 13.61,9.75q0.43,0.76 0.77,1.57q0.36,0.81 0.62,1.65q0.27,0.84 0.45,1.7q0.19,0.86 0.29,1.73q0.1,0.88 0.11,1.76q0.01,0.88 -0.07,1.76q-0.08,0.87 -0.25,1.74q-0.16,0.86 -0.41,1.71c-1.62,5.59 -5.74,9.66 -10.7,12.43c9.07,8.83 11.16,20.74 14.3,32.54l-14.06,-0.21c-1.61,-4.53 -2.81,-9.27 -4.22,-13.86c-0.95,-3.16 -2.05,-6.47 -4.23,-9.02c-3.55,-4.14 -8.76,-4.34 -13.81,-4.76l0.02,27.75q-6.99,-0.14 -13.98,0.01c-0.57,-7.47 -0.25,-15.22 -0.33,-22.73l-0.55,-44.25q8.11,-1.84 16.41,-2.55zm-1.22,31.57c5.61,-0.4 10.66,-0.35 15.61,-3.37c2.05,-2.61 4.16,-5.55 3.6,-9.08c-0.36,-2.27 -2.03,-4.09 -3.91,-5.31c-4.56,-2.95 -10.38,-3.07 -15.64,-3c0.06,6.89 -0.1,13.87 0.35,20.76z" fill="#3B3F48" id="svg_58"/>
  <path d="m450.18,612.98c4.67,0.37 9.42,0.14 14.1,0.1c-1.06,9.54 -0.56,19.83 -0.55,29.43c0,12.97 -0.28,26.03 0.24,38.98c-4.62,-0.19 -9.23,-0.17 -13.84,0.24c0.63,-6.99 0.41,-14.13 0.43,-21.15c0.03,-15.87 -0.48,-31.73 -0.38,-47.6z" fill="#3B3F48" id="svg_59"/>
  <path d="m499.34,304.63c2.25,1.78 4.11,3.93 5.75,6.27c3.44,4.89 6.33,11.82 5.16,17.83c-1.13,5.83 -5.2,10.06 -9.95,13.27c-1.57,-0.36 -2.6,-1.11 -3.85,-2.12c-3.84,-3.09 -5.65,-7.17 -6.09,-12.06c-0.81,-8.93 3.5,-16.59 8.98,-23.19z" fill="#3B3F48" id="svg_60" transform="rotate(44.4222 500.383 323.313)"/>
  <path d="m500.21,318.4c2.72,0.9 5.21,2.28 7.55,3.92c4.91,3.41 10,8.93 10.97,14.98c0.94,5.86 -1.43,11.23 -4.79,15.88c-1.6,0.2 -2.82,-0.15 -4.34,-0.67c-4.67,-1.58 -7.77,-4.8 -9.86,-9.24c-3.83,-8.11 -2.41,-16.78 0.48,-24.86z" fill="#3B3F48" id="svg_64"/>
  <path d="m495.96,290.3c1.91,0.26 3.87,0.18 5.79,0.2c-0.57,5.52 -0.52,11.49 -0.65,17.05c-0.19,7.52 -0.49,15.08 -0.47,22.6c-1.9,-0.16 -3.79,-0.19 -5.69,0c0.36,-4.05 0.37,-8.19 0.48,-12.26c0.24,-9.2 0.26,-18.39 0.53,-27.59z" fill="#3B3F48" id="svg_65"/>
 </g>
</svg>