<?xml version="1.0"?>
<svg width="1013" height="1013" xmlns="http://www.w3.org/2000/svg" xmlns:svg="http://www.w3.org/2000/svg">


 <g class="layer">
  <title>Layer 1</title>
  <path d="m691.8,240.91c0.43,4.77 0.66,9.42 0.28,14.21q-0.13,1.69 -0.35,3.36q-0.22,1.68 -0.51,3.34q-0.31,1.66 -0.69,3.31q-0.4,1.64 -0.87,3.26q-0.47,1.63 -1.04,3.22q-0.56,1.59 -1.2,3.15q-0.65,1.57 -1.37,3.1q-0.72,1.53 -1.53,3.02c-11.77,21.78 -38.17,41.85 -57.03,57.87c31.76,-9.58 55.64,-31.03 77.15,-55.27c1.07,2.62 1.94,5.36 2.9,8.02c-3.02,9.46 -8.96,18.12 -14.75,26.1c-13.98,19.24 -30.42,34.74 -51.07,46.63c-7.66,4.41 -15.69,8.13 -23.33,12.61c8.42,-1.74 16.96,-2.93 25.3,-5.06c20.92,-5.37 36.15,-18.1 51.22,-32.81c-4.37,14.21 -11.35,30.79 -24.16,39.29c-3.88,2.57 -8.29,4.23 -12.29,6.6l-0.38,0.24c8.77,-2.24 17.17,-4.86 25.63,-8.06c-2.62,10.58 -8.03,19.61 -16.96,26c-16.12,11.52 -39.6,12.15 -58.55,9.05c9.39,6.24 20.43,10.69 31.63,12.12c4.48,0.57 16.27,-2.06 19.23,0.28c-0.04,2.35 -0.48,4.4 -1.61,6.49c-2.88,5.36 -9,9.33 -14.75,10.89c-16.86,4.56 -41.7,-7.39 -56.29,-15.76c11.88,14.04 20.87,21.41 38.45,27.34c-8.34,6.02 -17.86,9.76 -28.27,8.14c-17.46,-2.72 -30.51,-24.5 -40.15,-37.79c3.76,18.64 12,34.92 27.3,46.85q-1.14,0.53 -2.29,1.05c-6.3,2.74 -12.51,3.15 -18.96,0.57c-16.74,-6.73 -26.2,-28.91 -32.63,-44.5c-0.81,23.73 6.8,34.86 20.42,53.39c-4.4,0.33 -8.31,0.46 -12.51,-1.25c-9.66,-3.95 -14.66,-13.71 -18.3,-22.82c-0.13,10.56 -0.46,21.19 0.23,31.73c2.04,30.96 10.23,63.85 22.31,92.4c10.87,25.65 28.23,47.23 50.04,64.41c5.58,4.39 12.12,9.39 18.75,12.07c-10.9,0.74 -21.68,1.27 -32.62,1.12c-8.28,-6.34 -12.49,-14.34 -16.83,-23.54l-0.49,0.19c0.92,0.5 1.59,4.39 1.95,5.53c1.99,6.37 5.46,12.31 8.95,17.95c-5.21,0.27 -10.42,0.3 -15.64,0.35c-4.55,-5.55 -7.65,-11.86 -10.84,-18.24c1.39,6.09 3.07,12.02 4.9,18c-5.62,-0.05 -26.71,0.96 -30.81,-0.3c-1.75,-0.54 -3.44,-2.66 -4.45,-4.1c-2.67,-3.86 -2.96,-14.95 -4.29,-16.04c-1.79,4.68 0.96,15.9 2.24,20.8l-29.86,0.04c-3.03,-5.72 -4.54,-11.29 -4.92,-17.75c-0.14,-2.45 -0.01,-5.01 -0.75,-7.38c-1.33,5.39 -1.09,19.78 -0.37,25.49q-14.98,0.2 -29.96,-0.05c1.11,-1.84 2.21,-3.68 3.18,-5.59c19.46,-37.88 19.23,-102.57 20.76,-145.11c0.43,-11.97 2.54,-26.66 0.89,-38.35c-1.1,-7.77 -6.25,-13.52 -8.36,-20.84c-3.91,-13.62 6.85,-25.72 12.92,-36.86l0.21,-0.4c-3.62,-1.08 -7.21,-2.19 -10.72,-3.58c-18.08,-7.19 -35.96,-20.13 -46.36,-36.8c-3.35,-5.37 -5.75,-11.19 -8.25,-16.99c-0.7,8.11 -0.49,16.4 -0.49,24.54l0.11,35.03c8.54,-4.04 16.81,-8.63 25.38,-12.62c8.46,5.27 15.86,11.92 24.52,17.05c-6.22,9.91 -11.76,18.88 -9.07,31.06c1.13,5.16 3.55,9.83 6.13,14.4c-15.6,7.23 -31.66,13.47 -47.15,20.96c-1,17.43 -0.41,35.43 -0.08,52.89c-0.07,8.5 -1,25.3 0.3,33.03c0.47,10.78 0.17,21.66 0.18,32.45l0.04,58l-12,-0.15l-0.25,-110.02c0.35,-70.24 1.34,-140.63 0.16,-210.86c-1.84,-1.03 -4.92,-2.78 -5.96,-4.67c-0.67,-1.26 -0.6,-1.56 -0.23,-2.83c0.9,-0.75 1.56,-0.74 2.69,-0.82c1.02,-0.08 1.36,0.01 2.23,-0.56c-0.9,-2.41 -1.75,-4.78 -2.43,-7.26c0.48,-1.53 2.34,-0.95 3.61,-2.24c1.46,-8.8 -10.85,-17.08 -14.03,-24.65c-4.57,-10.87 7.61,-12.63 13.34,-18.58c3.19,-3.32 4.6,-7.27 6.31,-11.46c4.13,16.91 13.89,13.36 18.78,21.46c3.84,6.37 -7.09,18.6 -10.26,24.16c-1.68,2.95 -2.72,5.8 -3.57,9.07c1.86,0.69 3.75,1.17 4.64,3.03c-0.53,1.8 -0.89,3.41 -1.01,5.29c1.03,0.37 2.04,0.67 2.91,1.34c0.62,0.48 0.48,0.8 0.58,1.52c-1.12,2.73 -3.7,4.52 -5.97,6.24c0.87,4.05 2.78,7.9 4.76,11.52c12.81,23.41 37.17,42.78 62.76,50.35c4.36,-4.79 8.63,-8.18 14.47,-11.04c-1.22,3.59 -3.91,9.39 -2.16,13.18c0.67,1.45 1.64,2.37 3.2,2.84c4.95,1.47 11.49,-2.44 15.77,-4.62q-1.25,-0.62 -2.45,-1.32c-10.2,-5.9 -13.08,-18.64 -15.9,-29.17c-2.3,0.59 -3.99,1.24 -8.17,1.33c-4.18,0.08 -3.09,-8.44 -6.18,-12.92l-0.39,-0.54c3.89,-9.86 2.21,-20.94 10.09,-27.43c5.38,-4.44 12.33,-6.03 19.18,-5.17c19.27,2.42 14.67,18.15 22.83,28.52c3.24,4.12 7.59,5.3 12.54,5.97c-2.64,2.52 -5.16,4.38 -8.45,5.97c-3.64,-0.45 -7.12,-0.95 -10.65,-2c2.94,2.55 5.81,4.97 9.08,7.07c2.21,0.15 4.39,0.11 6.6,0.09c-1.86,6.37 -3.77,9.93 -9.48,13.34c-2.26,-0.13 -4.55,-0.45 -6.81,-0.71c0.15,0.12 0.3,0.25 0.45,0.37c1.1,0.86 2.46,1.72 3.26,2.87c0.62,0.9 0.62,1.18 0.45,2.19c-0.49,0.36 -0.54,0.45 -1.23,0.64c-3.66,1.06 -9.23,-1.87 -12.07,-3.91c1.96,3.8 4.03,7.54 6,11.32c11.31,-5.28 22.62,-14.73 30.61,-24.25c11.35,-13.52 18.43,-30.18 16.91,-47.95c1.46,1.67 2.91,3.35 4.09,5.25c4.29,6.89 3.33,13.52 1.67,21c4.72,-5.75 9,-11.98 13.43,-17.95c5.81,-7.86 11.79,-15.68 17.3,-23.75c4.02,-5.87 6.46,-13.86 11.73,-18.69c1.23,-0.33 1.26,-0.32 2.43,0.17c0.78,0.91 1.34,1.68 1.74,2.83c3.19,8.92 -4.13,21.24 -7.8,29.18c7.11,-5.17 14.5,-9.96 21.59,-15.17c25.56,-18.8 46.11,-39.53 59.96,-68.53zm-298.12,51.66c2.15,9.29 6.96,17.33 10.61,26.04c3.89,-8.23 8.24,-17.12 10.54,-25.93c-2.57,-4.82 -5.9,-8.73 -9.86,-12.49c-4.35,3.67 -8.27,7.52 -11.29,12.38z" fill="#3B3F48" id="svg_5"/>
  <path d="m443.38,331.43c8.55,5.33 16.04,12.05 24.79,17.24c-6.29,10.02 -11.89,19.09 -9.17,31.41c1.14,5.22 3.59,9.94 6.2,14.56c-15.77,7.31 -32.01,13.62 -47.68,21.19c0.7,-10.22 0.39,-20.6 0.4,-30.85q0.14,-20.4 -0.2,-40.79c8.64,-4.09 17,-8.73 25.66,-12.76z" fill="#E7756D" id="svg_6" transform="translate(-2.22222 74.4444) scale(0.988936 0.988936)"/>
  <path d="m815.33,325.91c11.81,11.23 20.71,27.05 29.15,40.87c-78.39,71.22 -174.22,93.58 -276.36,106.64c-5.96,0.48 -11.95,1.49 -17.88,2.25c-3.55,-12.29 -6.21,-24.84 -8.86,-37.35c8.74,-2.13 17.78,-3.06 26.69,-4.3q16,-2.14 31.81,-5.43c61.33,-12.96 122.55,-33.82 174.32,-69.92c14.37,-10.02 27.7,-21.51 41.13,-32.76z" fill="#458A86" id="svg_7" transform="translate(-2.22222 74.4444) scale(0.988936 0.988936)"/>
  <path d="m396.65,353.93l0.37,0.15c1.63,3.12 0.5,63.39 0.48,71.52q-5.73,3.03 -11.37,6.24q-5.63,3.21 -11.16,6.59q-5.54,3.38 -10.97,6.92q-5.42,3.55 -10.74,7.26q-5.32,3.71 -10.51,7.58q-5.2,3.87 -10.28,7.9q-5.08,4.03 -10.04,8.21q-4.95,4.19 -9.77,8.52q-4.83,4.33 -9.51,8.81q-4.69,4.48 -9.24,9.1q-4.55,4.62 -8.96,9.37q-4.4,4.76 -8.66,9.65q-4.25,4.89 -8.36,9.9q-4.11,5.02 -8.06,10.16q-3.95,5.14 -7.74,10.4q-3.79,5.26 -7.42,10.63q-6.47,-6.15 -13.06,-12.17l-14.81,-13.5c5.32,-12.01 13.33,-23.14 20.54,-34.09c41.6,-63.26 94.44,-110.57 159.27,-149.15z" fill="#E7756D" id="svg_8" transform="translate(-2.22222 74.4444) scale(0.988936 0.988936)"/>
  <path d="m729.93,252.45c14.4,1.44 41.25,25.67 51.52,36.41c-5.47,5.01 -11.86,9.29 -17.91,13.56q-21.3,15.14 -43.85,28.37c-11.27,6.74 -22.91,11.71 -35.07,16.63c6.04,-9.18 12.58,-19.41 16.28,-29.77c4.62,-12.96 6.49,-26.78 10.76,-39.87c3.47,-10.62 7.91,-20.06 18.27,-25.33z" fill="#E7756D" id="svg_9" transform="translate(-2.22222 74.4444) scale(0.988936 0.988936)"/>
  <path d="m395.75,478.88l0.84,0.17c1.63,3.95 0.58,26.89 0.72,32.73c-27.4,14.46 -53.31,29.83 -76.69,50.32c-7.08,6.21 -13.52,13.11 -20.34,19.59c-7.61,0.45 -15.28,0.28 -22.9,0.28l-1.26,-0.2l-0.15,-0.95c2.63,-6.21 9.48,-12.58 13.93,-17.79c30,-35.08 64.65,-63.18 105.85,-84.15z" fill="#458A86" id="svg_10" transform="translate(-2.22222 74.4444) scale(0.988936 0.988936)"/>
  <path d="m417.44,469.31c16.38,-5.13 31.65,-12.55 48.61,-15.95c-1.28,11.41 -1.57,23.37 -1.64,34.86c-6.72,2.07 -13.6,3.61 -20.37,5.56q-13.34,3.89 -26.3,8.93c-1.31,-7.82 -0.37,-24.8 -0.3,-33.4z" fill="#458A86" id="svg_15" transform="translate(-2.22222 74.4444) scale(0.988936 0.988936)"/>
  <path d="m497.11,379.07c2.25,1.78 4.11,3.93 5.75,6.27c3.44,4.89 6.33,11.82 5.16,17.83c-1.13,5.83 -5.2,10.06 -9.95,13.27c-1.57,-0.36 -2.6,-1.11 -3.85,-2.12c-3.84,-3.09 -5.65,-7.17 -6.09,-12.06c-0.81,-8.93 3.5,-16.59 8.98,-23.19z" fill="#3B3F48" id="svg_60" transform="rotate(44.4222 498.161 397.758)"/>
  <path d="m497.99,392.84c2.72,0.9 5.21,2.28 7.55,3.92c4.91,3.41 10,8.93 10.97,14.98c0.94,5.86 -1.43,11.23 -4.79,15.88c-1.6,0.2 -2.82,-0.15 -4.34,-0.67c-4.67,-1.58 -7.77,-4.8 -9.86,-9.24c-3.83,-8.11 -2.41,-16.78 0.48,-24.86z" fill="#3B3F48" id="svg_64"/>
  <path d="m493.74,364.74c1.91,0.26 3.87,0.18 5.79,0.2c-0.57,5.52 -0.52,11.49 -0.65,17.05c-0.19,7.52 -0.49,15.08 -0.47,22.6c-1.9,-0.16 -3.79,-0.19 -5.69,0c0.36,-4.05 0.37,-8.19 0.48,-12.26c0.24,-9.2 0.26,-18.39 0.53,-27.59z" fill="#3B3F48" id="svg_65"/>
  <path d="m550.28,631.49c-0.45,7.33 -0.2,14.8 -0.17,22.15c-11.16,-1.76 -23.19,-1.09 -34.43,-1.18c-15.18,-0.14 -30.45,-0.71 -45.6,-0.03c0.24,-7.25 0.23,-14.49 -0.22,-21.74c8.18,1.07 16.53,0.78 24.74,0.89c18.57,0.21 37.11,-0.43 55.68,-0.09z" fill="#3B3F48" id="svg_66" transform="rotate(179.808 510.069 642.169)"/>
  <path d="m495.08,654.85c0.42,-7.33 0.15,-14.8 0.1,-22.15c11.17,1.72 23.2,1.01 34.43,1.06c15.18,0.08 30.45,0.6 45.6,-0.12c-0.21,7.25 -0.18,14.49 0.3,21.74c-8.18,-1.04 -16.53,-0.73 -24.75,-0.81c-18.57,-0.15 -37.11,0.56 -55.68,0.28z" fill="#3B3F48" id="svg_68"/>
  <path d="m503.45,607.37c8.99,-0.22 18.9,0.59 25.74,7.15q0.39,0.37 0.75,0.76q0.36,0.39 0.71,0.8q0.34,0.41 0.66,0.83q0.33,0.42 0.63,0.86q0.3,0.44 0.58,0.9q0.27,0.45 0.52,0.92q0.26,0.47 0.49,0.95q0.23,0.48 0.43,0.97q0.2,0.49 0.38,1q0.18,0.5 0.33,1.01q0.15,0.51 0.28,1.03q0.13,0.51 0.22,1.04q0.1,0.52 0.18,1.05q0.07,0.53 0.11,1.06q0.05,0.53 0.06,1.06q0.02,0.53 0.01,1.06q0,0.51 -0.03,1.02q-0.03,0.5 -0.09,1.01q-0.05,0.5 -0.13,1q-0.08,0.5 -0.18,1q-0.11,0.49 -0.23,0.98q-0.13,0.49 -0.29,0.98q-0.15,0.48 -0.32,0.96q-0.18,0.47 -0.38,0.94q-0.2,0.46 -0.42,0.92q-0.22,0.45 -0.47,0.9q-0.24,0.44 -0.51,0.87q-0.27,0.43 -0.56,0.85q-0.28,0.42 -0.59,0.82q-0.31,0.4 -0.64,0.79q-0.32,0.38 -0.67,0.75q-0.35,0.37 -0.71,0.73c-8.22,7.89 -18.67,7.05 -29.16,6.76l-0.11,6.62l0.04,19.95c-4.65,-0.08 -9.3,-0.02 -13.94,-0.02q-0.27,-34.09 0.16,-68.17c5.71,-0.82 11.4,-1.64 17.15,-2.11zm-3.46,33.82c6.78,0.08 11.64,0.23 17.47,-3.69c2.12,-2.79 3.94,-5.71 3.55,-9.37c-0.29,-2.7 -1.98,-4.85 -4.14,-6.37c-4.98,-3.5 -10.93,-3.43 -16.72,-3.18c-0.02,7.51 0.15,15.1 -0.16,22.61z" fill="#3B3F48" id="svg_69" transform="rotate(-90.2225 505.13 635.397) matrix(0.988936 0 0 0.988936 0 0)"/>
  <path d="m476.73,531.5c8.99,-0.22 18.9,0.59 25.74,7.15q0.39,0.37 0.75,0.76q0.36,0.39 0.71,0.8q0.34,0.41 0.66,0.83q0.33,0.42 0.63,0.86q0.3,0.44 0.58,0.9q0.27,0.45 0.52,0.92q0.26,0.47 0.49,0.95q0.23,0.48 0.43,0.97q0.2,0.49 0.38,1q0.18,0.5 0.33,1.01q0.15,0.51 0.28,1.03q0.13,0.51 0.22,1.04q0.1,0.52 0.18,1.05q0.07,0.53 0.11,1.06q0.05,0.53 0.06,1.06q0.02,0.53 0.01,1.06q0,0.51 -0.03,1.02q-0.03,0.5 -0.09,1.01q-0.05,0.5 -0.13,1q-0.08,0.5 -0.18,1q-0.11,0.49 -0.23,0.98q-0.13,0.49 -0.29,0.98q-0.15,0.48 -0.32,0.96q-0.18,0.47 -0.38,0.94q-0.2,0.46 -0.42,0.92q-0.22,0.45 -0.47,0.9q-0.24,0.44 -0.51,0.87q-0.27,0.43 -0.56,0.85q-0.28,0.42 -0.59,0.82q-0.31,0.4 -0.64,0.79q-0.32,0.38 -0.67,0.75q-0.35,0.37 -0.71,0.73c-8.22,7.89 -18.67,7.05 -29.16,6.76l-0.11,6.62l0.04,19.95c-4.65,-0.08 -9.3,-0.02 -13.94,-0.02q-0.27,-34.09 0.16,-68.17c5.71,-0.82 11.4,-1.64 17.15,-2.11zm-3.46,33.82c6.78,0.08 11.64,0.23 17.47,-3.69c2.12,-2.79 3.94,-5.71 3.55,-9.37c-0.29,-2.7 -1.98,-4.85 -4.14,-6.37c-4.98,-3.5 -10.93,-3.43 -16.72,-3.18c-0.02,7.51 0.15,15.1 -0.16,22.61z" fill="#3B3F48" id="svg_70" transform="rotate(-0.66895 557.324 637.881) matrix(-0.00337227 -0.868372 0.988929 -0.00384045 -1.40846 1060.41)"/>
  <path d="m526.54,675.43c5.4,-0.26 10.78,-0.11 16.04,1.28c5.64,1.49 10.69,4.56 13.61,9.75q0.43,0.76 0.77,1.57q0.36,0.81 0.62,1.65q0.27,0.84 0.45,1.7q0.19,0.86 0.29,1.73q0.1,0.88 0.11,1.76q0.01,0.88 -0.07,1.76q-0.08,0.87 -0.25,1.74q-0.16,0.86 -0.41,1.71c-1.62,5.59 -5.74,9.66 -10.7,12.43c9.07,8.83 11.16,20.74 14.3,32.54l-14.06,-0.21c-1.61,-4.53 -2.81,-9.27 -4.22,-13.86c-0.95,-3.16 -2.05,-6.47 -4.23,-9.02c-3.55,-4.14 -8.76,-4.34 -13.81,-4.76l0.02,27.75q-6.99,-0.14 -13.98,0.01c-0.57,-7.47 -0.25,-15.22 -0.33,-22.73l-0.55,-44.25q8.11,-1.84 16.41,-2.55zm-1.22,31.57c5.61,-0.4 10.66,-0.35 15.61,-3.37c2.05,-2.61 4.16,-5.55 3.6,-9.08c-0.36,-2.27 -2.03,-4.09 -3.91,-5.31c-4.56,-2.95 -10.38,-3.07 -15.64,-3c0.06,6.89 -0.1,13.87 0.35,20.76z" fill="#3B3F48" id="svg_77"/>
  <path d="m587.57,676.44c8.89,-0.22 18.69,0.58 25.46,7.07q0.39,0.37 0.74,0.75q0.36,0.39 0.7,0.79q0.34,0.41 0.65,0.82q0.33,0.42 0.62,0.85q0.3,0.44 0.57,0.89q0.27,0.45 0.51,0.91q0.26,0.46 0.48,0.94q0.23,0.47 0.43,0.96q0.2,0.48 0.38,0.99q0.18,0.49 0.33,1q0.15,0.5 0.28,1.02q0.13,0.5 0.22,1.03q0.1,0.51 0.18,1.04q0.07,0.52 0.11,1.05q0.05,0.52 0.06,1.05q0.02,0.52 0.01,1.05q0,0.5 -0.03,1.01q-0.03,0.49 -0.09,1q-0.05,0.49 -0.13,0.99q-0.08,0.49 -0.18,0.99q-0.11,0.48 -0.23,0.97q-0.13,0.48 -0.29,0.97q-0.15,0.47 -0.32,0.95q-0.18,0.46 -0.38,0.93q-0.2,0.45 -0.42,0.91q-0.22,0.45 -0.46,0.89q-0.24,0.44 -0.5,0.86q-0.27,0.43 -0.55,0.84q-0.28,0.42 -0.58,0.81q-0.31,0.4 -0.63,0.78q-0.32,0.38 -0.66,0.74q-0.35,0.37 -0.7,0.72c-8.13,7.8 -18.46,6.97 -28.84,6.69l-0.11,6.55l0.04,19.73c-4.6,-0.08 -9.2,-0.02 -13.79,-0.02q-0.27,-33.71 0.16,-67.42c5.65,-0.81 11.27,-1.62 16.96,-2.09zm-3.42,33.45c6.7,0.08 11.51,0.23 17.28,-3.65c2.1,-2.76 3.9,-5.65 3.51,-9.27c-0.29,-2.67 -1.96,-4.8 -4.09,-6.3c-4.92,-3.46 -10.81,-3.39 -16.54,-3.14c-0.02,7.43 0.15,14.93 -0.16,22.36z" fill="#3B3F48" id="svg_76"/>
  <path d="m665.7,682.95c7.65,-0.73 14.76,1.02 21.98,3.38c-2.23,3.26 -3.99,6.96 -5.88,10.44c-4.26,-1.97 -8.78,-3.12 -13.5,-2.64q-0.59,0.05 -1.17,0.14q-0.58,0.09 -1.16,0.21q-0.57,0.12 -1.14,0.26q-0.57,0.15 -1.13,0.32q-0.57,0.18 -1.12,0.38q-0.55,0.21 -1.09,0.44q-0.54,0.23 -1.07,0.49q-0.53,0.26 -1.04,0.54q-0.52,0.29 -1.02,0.6q-0.5,0.31 -0.98,0.65q-0.48,0.34 -0.95,0.7q-0.46,0.36 -0.91,0.74q-0.44,0.38 -0.87,0.79q-0.43,0.41 -0.83,0.83q-0.41,0.43 -0.79,0.88q-0.38,0.44 -0.74,0.91c-4.66,6.05 -6.36,14.04 -5.3,21.53c0.84,5.9 3.66,11.37 8.57,14.88c7.93,5.68 16.83,3.98 25.74,2.63l2.53,5.66l2.12,4.71c-2.99,0.91 -5.97,1.83 -9.05,2.38c-10.46,1.88 -22.09,1.01 -30.97,-5.31c-7.73,-5.51 -12.58,-14.08 -14.02,-23.39c-1.59,-10.28 0.67,-20.14 6.92,-28.51c6.57,-8.8 16.21,-13.08 26.87,-14.64z" fill="#3B3F48" id="svg_75" transform="translate(1 0) scale(0.988936 0.988936)"/>
  <path d="m475.5,676.42c6.87,-0.4 12.96,0.73 19.55,2.67c-0.83,3.89 -2.1,7.75 -3.17,11.58c-3.17,-1.18 -6.56,-2.37 -9.89,-2.99c-4.56,-0.82 -9.31,0.63 -12.98,3.43c-1.34,1.02 -1.77,1.88 -2.05,3.51c2.22,7.93 17.1,11.34 23.37,16c4.23,3.14 7.23,7.65 7.79,12.96c0.54,5.05 -1.37,10.56 -4.66,14.41c-4.84,5.65 -12.55,7.62 -19.67,8.11c-7.24,-0.07 -12.5,-1.09 -19.17,-3.9l2,-11.47c4.49,2.23 10.22,5.37 15.36,4.91c3.29,-0.29 7.96,-1.58 10.07,-4.32c1.23,-1.6 1.88,-3.94 1.49,-5.93c-1.33,-6.86 -15.82,-10.78 -21.23,-14.6c-4.02,-2.85 -7.65,-6.84 -8.36,-11.9c-0.65,-4.68 1.18,-10.23 4.04,-13.91c4.29,-5.53 10.84,-7.7 17.5,-8.56z" fill="#3B3F48" id="svg_74"/>
  <path d="m335.43,677.18c4.67,0.37 9.42,0.14 14.1,0.1c-1.06,9.54 -0.56,19.83 -0.55,29.43c0,12.97 -0.28,26.03 0.24,38.98c-4.62,-0.19 -9.23,-0.17 -13.84,0.24c0.63,-6.99 0.41,-14.13 0.43,-21.15c0.03,-15.87 -0.48,-31.73 -0.38,-47.6z" fill="#3B3F48" id="svg_73"/>
  <path d="m379.92,675.36c5.4,-0.26 10.78,-0.11 16.04,1.28c5.64,1.49 10.69,4.56 13.61,9.75q0.43,0.76 0.77,1.57q0.36,0.81 0.62,1.65q0.27,0.84 0.45,1.7q0.19,0.86 0.29,1.73q0.1,0.88 0.11,1.76q0.01,0.88 -0.07,1.76q-0.08,0.87 -0.25,1.74q-0.16,0.86 -0.41,1.71c-1.62,5.59 -5.74,9.66 -10.7,12.43c9.07,8.83 11.16,20.74 14.3,32.54l-14.06,-0.21c-1.61,-4.53 -2.81,-9.27 -4.22,-13.86c-0.95,-3.16 -2.05,-6.47 -4.23,-9.02c-3.55,-4.14 -8.76,-4.34 -13.81,-4.76l0.02,27.75q-6.99,-0.14 -13.98,0.01c-0.57,-7.47 -0.25,-15.22 -0.33,-22.73l-0.55,-44.25q8.11,-1.84 16.41,-2.55zm-1.22,31.57c5.61,-0.4 10.66,-0.35 15.61,-3.37c2.05,-2.61 4.16,-5.55 3.6,-9.08c-0.36,-2.27 -2.03,-4.09 -3.91,-5.31c-4.56,-2.95 -10.38,-3.07 -15.64,-3c0.06,6.89 -0.1,13.87 0.35,20.76z" fill="#3B3F48" id="svg_72"/>
  <path d="m426.07,676.74c4.67,0.37 9.42,0.14 14.1,0.1c-1.06,9.54 -0.56,19.83 -0.55,29.43c0,12.97 -0.28,26.03 0.24,38.98c-4.62,-0.19 -9.23,-0.17 -13.84,0.24c0.63,-6.99 0.41,-14.13 0.43,-21.15c0.03,-15.87 -0.48,-31.73 -0.38,-47.6z" fill="#3B3F48" id="svg_71"/>
 </g>
</svg>